<svg width="45" height="45" viewBox="0 0 45 45" fill="none" xmlns="http://www.w3.org/2000/svg">
<circle cx="22.5" cy="22.5" r="21.5" fill="white" stroke="#EF9308" stroke-width="2"/>
<path d="M22.5003 22.9275C21.5103 22.9275 20.7003 22.6125 20.0703 21.9825C19.4403 21.3525 19.1253 20.5425 19.1253 19.5525C19.1253 18.5625 19.4403 17.7525 20.0703 17.1225C20.7003 16.4925 21.5103 16.1775 22.5003 16.1775C23.4903 16.1775 24.3003 16.4925 24.9303 17.1225C25.5603 17.7525 25.8753 18.5625 25.8753 19.5525C25.8753 20.5425 25.5603 21.3525 24.9303 21.9825C24.3003 22.6125 23.4903 22.9275 22.5003 22.9275ZM15.3003 30.15V28.035C15.3003 27.465 15.4428 26.9775 15.7278 26.5725C16.0128 26.1675 16.3803 25.86 16.8303 25.65C17.8353 25.2 18.799 24.8625 19.7215 24.6375C20.644 24.4125 21.5703 24.3 22.5003 24.3C23.4303 24.3 24.3528 24.4162 25.2678 24.6487C26.1828 24.8812 27.1422 25.2164 28.146 25.6544C28.6155 25.8662 28.992 26.1735 29.2753 26.5761C29.5586 26.9787 29.7003 27.465 29.7003 28.035V30.15H15.3003ZM16.6503 28.8H28.3503V28.035C28.3503 27.795 28.279 27.5662 28.1365 27.3487C27.994 27.1312 27.8178 26.97 27.6078 26.865C26.6478 26.4 25.7703 26.0812 24.9753 25.9087C24.1803 25.7362 23.3553 25.65 22.5003 25.65C21.6453 25.65 20.8128 25.7362 20.0028 25.9087C19.1928 26.0812 18.3153 26.4 17.3703 26.865C17.1603 26.97 16.9878 27.1312 16.8528 27.3487C16.7178 27.5662 16.6503 27.795 16.6503 28.035V28.8ZM22.5003 21.5775C23.0853 21.5775 23.569 21.3862 23.9515 21.0037C24.334 20.6212 24.5253 20.1375 24.5253 19.5525C24.5253 18.9675 24.334 18.4837 23.9515 18.1012C23.569 17.7187 23.0853 17.5275 22.5003 17.5275C21.9153 17.5275 21.4315 17.7187 21.049 18.1012C20.6665 18.4837 20.4753 18.9675 20.4753 19.5525C20.4753 20.1375 20.6665 20.6212 21.049 21.0037C21.4315 21.3862 21.9153 21.5775 22.5003 21.5775Z" fill="#EF9308"/>
</svg>
