<svg width="145" height="46" viewBox="0 0 145 46" fill="none" xmlns="http://www.w3.org/2000/svg">
<g filter="url(#filter0_d_817_111)">
<path d="M11.5 13.85C11.5 24.1833 11.7333 30.95 12.2 34.15C12.2 34.95 11.4333 35.6 9.9 36.1C8.36667 36.6333 7.1 36.9 6.1 36.9C5.1 36.9 4.6 36.75 4.6 36.45C4.6 36.25 4.65 36 4.75 35.7C5.38333 34.3 5.7 28.6667 5.7 18.8C5.7 9.46667 5.3 4.28333 4.5 3.25L4.3 2.95C4.1 2.78333 4 2.58333 4 2.35C4 2.08333 4.18333 1.86666 4.55 1.7C5.05 1.4 5.93333 1.1 7.2 0.799997C8.5 0.499997 9.66667 0.349997 10.7 0.349997C11.7333 0.349997 12.25 0.58333 12.25 1.05V1.2C11.85 4.66667 11.6 8.88333 11.5 13.85ZM17.8559 27L18.1559 18.15H14.8059C14.5392 18.15 14.4059 18.05 14.4059 17.85C14.4059 17.25 14.6892 16.5667 15.2559 15.8C15.8225 15 16.4392 14.6 17.1059 14.6H18.1559C18.0892 12 18.0225 10.1333 17.9559 9C17.8225 6.96667 17.4892 5.4 16.9559 4.3L16.7059 3.8C16.5725 3.63333 16.5059 3.43333 16.5059 3.2C16.5059 2.96666 16.6892 2.76666 17.0559 2.6C17.4225 2.43333 17.9559 2.23333 18.6559 2C19.3892 1.76667 20.9225 1.46667 23.2559 1.1C25.5892 0.699998 28.1225 0.499998 30.8559 0.499998C33.6225 0.499998 35.1225 0.699998 35.3559 1.1C35.6225 1.5 35.7559 2.13333 35.7559 3C35.7559 3.83333 35.6392 4.25 35.4059 4.25C35.3725 4.25 35.2559 4.23333 35.0559 4.2C34.5225 4.06666 33.7059 4 32.6059 4C31.5059 4 30.3225 4.1 29.0559 4.3C27.7892 4.5 26.8225 4.7 26.1559 4.9L25.2059 5.25C24.9392 5.31667 24.7392 5.55 24.6059 5.95C24.3392 7.91666 24.2059 10.8 24.2059 14.6H32.3059C32.6059 14.6 32.7559 14.7 32.7559 14.9C32.7559 15.5 32.4892 16.2 31.9559 17C31.4225 17.8 30.8225 18.2 30.1559 18.2L24.2059 18.15L24.5559 33.15C24.5559 33.8833 24.4392 34.4167 24.2059 34.75C23.5725 35.5833 22.4892 36.2 20.9559 36.6C19.4559 37.0333 18.2059 37.25 17.2059 37.25C16.9392 37.25 16.8059 37.0833 16.8059 36.75C16.8059 36.5833 16.8225 36.45 16.8559 36.35C17.2559 35.7833 17.5892 32.6667 17.8559 27ZM47.2016 27L47.5016 18.15H44.1516C43.8849 18.15 43.7516 18.05 43.7516 17.85C43.7516 17.25 44.0349 16.5667 44.6016 15.8C45.1682 15 45.7849 14.6 46.4516 14.6H47.5016C47.4349 12 47.3682 10.1333 47.3016 9C47.1682 6.96667 46.8349 5.4 46.3016 4.3L46.0516 3.8C45.9182 3.63333 45.8516 3.43333 45.8516 3.2C45.8516 2.96666 46.0349 2.76666 46.4016 2.6C46.7682 2.43333 47.3016 2.23333 48.0016 2C48.7349 1.76667 50.2682 1.46667 52.6016 1.1C54.9349 0.699998 57.4682 0.499998 60.2016 0.499998C62.9682 0.499998 64.4682 0.699998 64.7016 1.1C64.9682 1.5 65.1016 2.13333 65.1016 3C65.1016 3.83333 64.9849 4.25 64.7516 4.25C64.7182 4.25 64.6016 4.23333 64.4016 4.2C63.8682 4.06666 63.0516 4 61.9516 4C60.8516 4 59.6682 4.1 58.4016 4.3C57.1349 4.5 56.1682 4.7 55.5016 4.9L54.5516 5.25C54.2849 5.31667 54.0849 5.55 53.9516 5.95C53.6849 7.91666 53.5516 10.8 53.5516 14.6H61.6516C61.9516 14.6 62.1016 14.7 62.1016 14.9C62.1016 15.5 61.8349 16.2 61.3016 17C60.7682 17.8 60.1682 18.2 59.5016 18.2L53.5516 18.15L53.9016 33.15C53.9016 33.8833 53.7849 34.4167 53.5516 34.75C52.9182 35.5833 51.8349 36.2 50.3016 36.6C48.8016 37.0333 47.5516 37.25 46.5516 37.25C46.2849 37.25 46.1516 37.0833 46.1516 36.75C46.1516 36.5833 46.1682 36.45 46.2016 36.35C46.6016 35.7833 46.9349 32.6667 47.2016 27ZM67.3844 17.15C66.5177 17.1833 65.8844 17.2167 65.4844 17.25C65.1177 17.25 64.9344 17.15 64.9344 16.95C64.9344 16.75 65.0344 16.55 65.2344 16.35C67.3677 14.3833 70.9677 13.4 76.0344 13.4C77.7677 13.4 79.1344 13.55 80.1344 13.85L80.6344 14C81.0344 14.1667 81.2344 14.35 81.2344 14.55C81.2344 14.7167 81.1177 14.85 80.8844 14.95C79.9844 15.2167 79.1177 15.65 78.2844 16.25C77.451 16.8167 77.0344 17.2167 77.0344 17.45L77.3344 17.8C78.401 18.4 79.2177 19.35 79.7844 20.65C80.3844 21.95 80.7177 23.1 80.7844 24.1L80.8844 25.65C80.8844 28.95 79.9677 31.6667 78.1344 33.8C76.301 35.9333 73.801 37 70.6344 37C69.0344 37 67.651 36.7167 66.4844 36.15C65.3177 35.5833 64.451 34.95 63.8844 34.25C63.351 33.5167 62.9177 32.7 62.5844 31.8C62.1844 30.5667 61.9844 29.3 61.9844 28C61.9844 26.6667 62.201 25.3333 62.6344 24C63.101 22.6667 63.6177 21.6833 64.1844 21.05C64.7844 20.4167 65.451 19.9 66.1844 19.5C67.1177 19 67.8677 18.75 68.4344 18.75C69.001 18.75 69.2844 18.8667 69.2844 19.1L68.9844 19.6C68.251 20.4667 67.7177 21.6 67.3844 23C67.0844 24.4 66.9344 25.65 66.9344 26.75C66.9344 27.8167 67.0677 28.8833 67.3344 29.95C67.601 31.0167 67.901 31.8167 68.2344 32.35C68.5677 32.85 68.951 33.2333 69.3844 33.5C70.0177 33.9 70.6844 34.1 71.3844 34.1C72.0844 34.1 72.7677 33.8333 73.4344 33.3C74.101 32.7333 74.5844 32 74.8844 31.1C75.4844 29.4333 75.7844 27.7167 75.7844 25.95C75.7844 23.15 75.0677 20.9833 73.6344 19.45C72.2344 17.9167 70.151 17.15 67.3844 17.15ZM88.3805 17.15C87.5138 17.1833 86.8805 17.2167 86.4805 17.25C86.1138 17.25 85.9305 17.15 85.9305 16.95C85.9305 16.75 86.0305 16.55 86.2305 16.35C88.3638 14.3833 91.9638 13.4 97.0305 13.4C98.7638 13.4 100.13 13.55 101.13 13.85L101.63 14C102.03 14.1667 102.23 14.35 102.23 14.55C102.23 14.7167 102.114 14.85 101.88 14.95C100.98 15.2167 100.114 15.65 99.2805 16.25C98.4471 16.8167 98.0305 17.2167 98.0305 17.45L98.3305 17.8C99.3971 18.4 100.214 19.35 100.78 20.65C101.38 21.95 101.714 23.1 101.78 24.1L101.88 25.65C101.88 28.95 100.964 31.6667 99.1305 33.8C97.2971 35.9333 94.7971 37 91.6305 37C90.0305 37 88.6471 36.7167 87.4805 36.15C86.3138 35.5833 85.4471 34.95 84.8805 34.25C84.3471 33.5167 83.9138 32.7 83.5805 31.8C83.1805 30.5667 82.9805 29.3 82.9805 28C82.9805 26.6667 83.1971 25.3333 83.6305 24C84.0971 22.6667 84.6138 21.6833 85.1805 21.05C85.7805 20.4167 86.4471 19.9 87.1805 19.5C88.1138 19 88.8638 18.75 89.4305 18.75C89.9971 18.75 90.2805 18.8667 90.2805 19.1L89.9805 19.6C89.2471 20.4667 88.7138 21.6 88.3805 23C88.0805 24.4 87.9305 25.65 87.9305 26.75C87.9305 27.8167 88.0638 28.8833 88.3305 29.95C88.5971 31.0167 88.8971 31.8167 89.2305 32.35C89.5638 32.85 89.9471 33.2333 90.3805 33.5C91.0138 33.9 91.6805 34.1 92.3805 34.1C93.0805 34.1 93.7638 33.8333 94.4305 33.3C95.0971 32.7333 95.5805 32 95.8805 31.1C96.4805 29.4333 96.7805 27.7167 96.7805 25.95C96.7805 23.15 96.0638 20.9833 94.6305 19.45C93.2305 17.9167 91.1471 17.15 88.3805 17.15ZM114.477 13.55C115.077 13.55 115.61 13.6333 116.077 13.8C116.577 13.9333 116.843 14 116.877 14L117.177 13.75L116.977 8.3C116.91 7.36667 116.71 6.56667 116.377 5.9C116.043 5.23333 115.743 4.8 115.477 4.6L115.027 4.35C114.827 4.21667 114.727 4.06667 114.727 3.9C114.727 3.4 115.493 2.81667 117.027 2.15C118.593 1.48333 119.81 1.15 120.677 1.15C121.543 1.15 122.01 1.33333 122.077 1.7C122.243 2.83333 122.327 5 122.327 8.2C122.327 11.3667 122.243 14.4833 122.077 17.55C121.943 20.6167 121.877 24.1 121.877 28C121.877 31.8667 122.127 34.3 122.627 35.3C122.76 35.5333 122.827 35.75 122.827 35.95C122.827 36.45 122.11 36.7 120.677 36.7C117.943 36.7 116.577 36.05 116.577 34.75C116.51 34.2167 116.477 33.4 116.477 32.3C116.477 31.1667 116.577 29.0833 116.777 26.05C117.01 22.9833 117.127 20.6333 117.127 19C117.127 17.3333 116.293 16.5 114.627 16.5C112.993 16.5 111.743 17.4667 110.877 19.4C110.01 21.3333 109.577 23.2667 109.577 25.2C109.577 29.3 110.61 31.35 112.677 31.35C112.977 31.35 113.26 31.3 113.527 31.2C113.827 31.0667 114.01 31 114.077 31C114.343 31 114.543 31.1667 114.677 31.5C114.843 31.8333 114.927 32.1667 114.927 32.5C114.927 33.6333 114.477 34.6 113.577 35.4C112.677 36.1667 111.577 36.55 110.277 36.55C108.277 36.55 106.76 35.6833 105.727 33.95C104.727 32.1833 104.227 30 104.227 27.4C104.227 24.1 105.01 21.0333 106.577 18.2C107.377 16.8 108.46 15.6833 109.827 14.85C111.193 13.9833 112.743 13.55 114.477 13.55ZM140.282 29.15C140.282 30.5833 139.999 31.8333 139.432 32.9C138.899 33.9667 138.282 34.75 137.582 35.25C136.882 35.75 136.049 36.15 135.082 36.45C133.815 36.85 132.665 37.05 131.632 37.05C129.465 37.05 127.665 36.6333 126.232 35.8C124.799 34.9333 124.082 33.5667 124.082 31.7C124.082 30.6 124.382 29.7 124.982 29C125.915 27.9667 127.032 27.45 128.332 27.45C128.732 27.45 128.932 27.6333 128.932 28C128.932 28.0333 128.849 28.3 128.682 28.8C128.549 29.2667 128.482 29.8667 128.482 30.6C128.482 31.3333 128.765 31.9833 129.332 32.55C129.932 33.1167 130.649 33.4 131.482 33.4C132.315 33.4 132.982 33.2667 133.482 33C133.982 32.7 134.332 32.3333 134.532 31.9C134.832 31.3 134.982 30.7333 134.982 30.2C134.982 29.2333 134.499 28.4 133.532 27.7C132.565 27 131.499 26.45 130.332 26.05C129.165 25.65 128.099 24.9833 127.132 24.05C126.165 23.1167 125.682 21.95 125.682 20.55C125.682 18.15 126.432 16.35 127.932 15.15C129.465 13.95 131.532 13.35 134.132 13.35C135.265 13.35 136.449 13.5167 137.682 13.85C138.949 14.15 139.582 14.6833 139.582 15.45C139.582 16.1833 139.449 16.8667 139.182 17.5C138.949 18.1333 138.649 18.45 138.282 18.45C138.082 18.45 137.949 18.3833 137.882 18.25C137.815 18.0833 137.699 17.9 137.532 17.7C137.365 17.5 136.965 17.25 136.332 16.95C135.699 16.6167 135.149 16.45 134.682 16.45C134.249 16.45 133.949 16.4667 133.782 16.5C133.649 16.5 133.399 16.55 133.032 16.65C132.665 16.7167 132.332 16.8333 132.032 17C131.265 17.4333 130.882 18.0667 130.882 18.9C130.882 19.4333 130.999 19.8333 131.232 20.1C131.465 20.3333 131.649 20.5167 131.782 20.65C131.915 20.7833 132.149 20.95 132.482 21.15C132.815 21.3167 133.049 21.4333 133.182 21.5C133.315 21.5667 133.615 21.7167 134.082 21.95C134.549 22.15 134.849 22.2833 134.982 22.35C138.515 24.0167 140.282 26.2833 140.282 29.15Z" fill="url(#paint0_linear_817_111)"/>
<path d="M11.5 13.85L10.5002 13.8299L10.5 13.8399V13.85H11.5ZM12.2 34.15H13.2V34.0775L13.1895 34.0057L12.2 34.15ZM9.9 36.1L9.58998 35.1493L9.5807 35.1523L9.57148 35.1555L9.9 36.1ZM4.75 35.7L3.83889 35.2878L3.81763 35.3348L3.80132 35.3838L4.75 35.7ZM4.5 3.25L3.66795 3.8047L3.6876 3.83417L3.70928 3.86217L4.5 3.25ZM4.3 2.95L5.13205 2.3953L5.0516 2.27462L4.94018 2.18178L4.3 2.95ZM4.55 1.7L4.9638 2.61036L5.01566 2.58679L5.0645 2.55749L4.55 1.7ZM7.2 0.799997L6.97514 -0.17441L6.96953 -0.173083L7.2 0.799997ZM12.25 1.2L13.2434 1.31462L13.25 1.2575V1.2H12.25ZM10.5 13.85C10.5 24.1677 10.7314 31.0095 11.2105 34.2943L13.1895 34.0057C12.7352 30.8905 12.5 24.199 12.5 13.85H10.5ZM11.2 34.15C11.2 34.1833 11.1998 34.287 10.9783 34.4747C10.7357 34.6804 10.299 34.9181 9.58998 35.1493L10.21 37.0507C11.0344 36.7819 11.7476 36.4446 12.2717 36.0003C12.8169 35.538 13.2 34.9167 13.2 34.15H11.2ZM9.57148 35.1555C8.08646 35.672 6.94036 35.9 6.1 35.9V37.9C7.25964 37.9 8.64688 37.5946 10.2285 37.0445L9.57148 35.1555ZM6.1 35.9C5.62554 35.9 5.36902 35.8617 5.26235 35.8297C5.20854 35.8135 5.27151 35.8215 5.36271 35.9036C5.41411 35.9498 5.47717 36.0224 5.5263 36.1255C5.57669 36.2314 5.6 36.3436 5.6 36.45H3.6C3.6 36.8445 3.77994 37.1698 4.02479 37.3902C4.24099 37.5848 4.49146 37.6865 4.68765 37.7453C5.08098 37.8633 5.57446 37.9 6.1 37.9V35.9ZM5.6 36.45C5.6 36.4013 5.61532 36.2663 5.69868 36.0162L3.80132 35.3838C3.68468 35.7337 3.6 36.0987 3.6 36.45H5.6ZM5.66111 36.1122C5.88519 35.6168 6.03737 34.873 6.15663 33.9901C6.28027 33.0747 6.38104 31.9022 6.46092 30.4811C6.6208 27.637 6.7 23.7405 6.7 18.8H4.7C4.7 23.7262 4.62086 27.5797 4.46408 30.3689C4.38563 31.7644 4.28848 32.8795 4.17462 33.7224C4.05638 34.5978 3.93148 35.0832 3.83889 35.2878L5.66111 36.1122ZM6.7 18.8C6.7 14.1244 6.59998 10.4653 6.39704 7.83556C6.29571 6.52259 6.16713 5.44382 6.00687 4.61359C5.92675 4.19852 5.83536 3.82766 5.72859 3.5118C5.62607 3.20851 5.48936 2.8944 5.29072 2.63783L3.70928 3.86217C3.70565 3.85748 3.71936 3.87456 3.74492 3.92747C3.76977 3.97888 3.80009 4.0522 3.83391 4.15226C3.90214 4.35411 3.97325 4.63064 4.04313 4.99265C4.18287 5.7166 4.30429 6.71075 4.40296 7.98944C4.60002 10.543 4.7 14.1423 4.7 18.8H6.7ZM5.33205 2.6953L5.13205 2.3953L3.46795 3.5047L3.66795 3.8047L5.33205 2.6953ZM4.94018 2.18178C4.92892 2.17239 4.94843 2.18578 4.96943 2.22779C4.9919 2.27273 5 2.31838 5 2.35H3C3 2.91679 3.26159 3.38636 3.65982 3.71822L4.94018 2.18178ZM5 2.35C5 2.4006 4.9908 2.45754 4.96937 2.51403C4.94828 2.56965 4.9212 2.60943 4.90089 2.63344C4.86566 2.67507 4.86256 2.65639 4.9638 2.61036L4.1362 0.789631C3.6189 1.02476 3 1.50617 3 2.35H5ZM5.0645 2.55749C5.42101 2.34358 6.17155 2.07124 7.43047 1.77308L6.96953 -0.173083C5.69511 0.128753 4.67899 0.456415 4.0355 0.842505L5.0645 2.55749ZM7.42486 1.77439C8.67124 1.48676 9.76053 1.35 10.7 1.35V-0.650003C9.5728 -0.650003 8.32876 -0.486768 6.97514 -0.174394L7.42486 1.77439ZM10.7 1.35C10.9232 1.35 11.0974 1.36276 11.2293 1.38261C11.3642 1.40292 11.4304 1.4271 11.4509 1.43637C11.47 1.44501 11.4119 1.42341 11.3486 1.3376C11.2767 1.2403 11.25 1.13058 11.25 1.05H13.25C13.25 0.73608 13.1587 0.422189 12.9577 0.149895C12.7652 -0.110916 12.5133 -0.278347 12.2741 -0.386374C11.8199 -0.591501 11.2607 -0.650003 10.7 -0.650003V1.35ZM11.25 1.05V1.2H13.25V1.05H11.25ZM11.2566 1.08537C10.8518 4.59345 10.6006 8.84364 10.5002 13.8299L12.4998 13.8701C12.5994 8.92302 12.8482 4.73988 13.2434 1.31462L11.2566 1.08537ZM17.8559 27L18.8548 27.047L18.8553 27.0339L17.8559 27ZM18.1559 18.15L19.1553 18.1839L19.1903 17.15H18.1559V18.15ZM15.2559 15.8L16.06 16.3944L16.066 16.3863L16.0719 16.378L15.2559 15.8ZM18.1559 14.6V15.6H19.1818L19.1555 14.5744L18.1559 14.6ZM17.9559 9L18.9542 8.94128L18.9537 8.93457L17.9559 9ZM16.9559 4.3L17.8557 3.86369L17.8503 3.85279L16.9559 4.3ZM16.7059 3.8L17.6003 3.35279L17.5529 3.25803L17.4867 3.1753L16.7059 3.8ZM17.0559 2.6L16.6421 1.68963L17.0559 2.6ZM18.6559 2L18.3526 1.04698L18.3396 1.05132L18.6559 2ZM23.2559 1.1L23.4111 2.08797L23.4248 2.08562L23.2559 1.1ZM35.3559 1.1L34.4921 1.60387L34.5072 1.62976L34.5238 1.6547L35.3559 1.1ZM35.0559 4.2L34.8133 5.17014L34.8521 5.17983L34.8915 5.18639L35.0559 4.2ZM29.0559 4.3L29.2118 5.28776L29.2118 5.28776L29.0559 4.3ZM26.1559 4.9L25.8685 3.94217L25.839 3.95102L25.8102 3.96166L26.1559 4.9ZM25.2059 5.25L25.4484 6.22014L25.5008 6.20703L25.5516 6.18834L25.2059 5.25ZM24.6059 5.95L23.6572 5.63377L23.6275 5.72272L23.6149 5.81564L24.6059 5.95ZM24.2059 14.6H23.2059V15.6H24.2059V14.6ZM31.9559 17L31.1238 16.4453L31.1238 16.4453L31.9559 17ZM30.1559 18.2L30.1475 19.2H30.1559V18.2ZM24.2059 18.15L24.2143 17.15L23.1821 17.1414L23.2061 18.1733L24.2059 18.15ZM24.5559 33.15H25.5559V33.1383L25.5556 33.1267L24.5559 33.15ZM24.2059 34.75L25.002 35.3551L25.0139 35.3395L25.0251 35.3235L24.2059 34.75ZM20.9559 36.6L20.7034 35.6324L20.6908 35.6357L20.6783 35.6393L20.9559 36.6ZM16.8559 36.35L16.0389 35.7733L15.9538 35.8938L15.9072 36.0338L16.8559 36.35ZM18.8553 27.0339L19.1553 18.1839L17.1564 18.1161L16.8564 26.9661L18.8553 27.0339ZM18.1559 17.15H14.8059V19.15H18.1559V17.15ZM14.8059 17.15C14.7687 17.15 14.9231 17.138 15.1059 17.275C15.2068 17.3507 15.2909 17.4542 15.3447 17.5751C15.3958 17.6902 15.4059 17.79 15.4059 17.85H13.4059C13.4059 18.194 13.5357 18.5974 13.9059 18.875C14.2219 19.112 14.5764 19.15 14.8059 19.15V17.15ZM15.4059 17.85C15.4059 17.557 15.5511 17.0829 16.06 16.3944L14.4517 15.2056C13.8273 16.0504 13.4059 16.943 13.4059 17.85H15.4059ZM16.0719 16.378C16.5442 15.7112 16.8967 15.6 17.1059 15.6V13.6C15.9817 13.6 15.1009 14.2888 14.4398 15.222L16.0719 16.378ZM17.1059 15.6H18.1559V13.6H17.1059V15.6ZM19.1555 14.5744C19.0888 11.9737 19.0219 10.0926 18.9541 8.94128L16.9576 9.05872C17.0232 10.1741 17.0895 12.0263 17.1562 14.6256L19.1555 14.5744ZM18.9537 8.93457C18.8168 6.84688 18.4706 5.13206 17.8557 3.86373L16.056 4.73627C16.5078 5.66794 16.8282 7.08645 16.958 9.06543L18.9537 8.93457ZM17.8503 3.85279L17.6003 3.35279L15.8114 4.24721L16.0614 4.74721L17.8503 3.85279ZM17.4867 3.1753C17.4891 3.17831 17.4926 3.18325 17.4963 3.18989C17.4999 3.19656 17.5027 3.20311 17.5045 3.20877C17.5064 3.21436 17.5068 3.21732 17.5067 3.21669C17.5066 3.21594 17.5059 3.21066 17.5059 3.2H15.5059C15.5059 3.63784 15.6363 4.06386 15.925 4.42469L17.4867 3.1753ZM17.5059 3.2C17.5059 3.27666 17.49 3.35282 17.4612 3.42089C17.4334 3.48663 17.4002 3.52924 17.3805 3.55072C17.3483 3.58585 17.3548 3.56258 17.4697 3.51036L16.6421 1.68963C16.1947 1.89297 15.5059 2.34189 15.5059 3.2H17.5059ZM17.4697 3.51036C17.7885 3.36543 18.2829 3.17842 18.9721 2.94868L18.3396 1.05132C17.6289 1.28824 17.0565 1.50123 16.6421 1.68963L17.4697 3.51036ZM18.9591 2.95293C19.6072 2.74669 21.0637 2.45675 23.4111 2.08788L23.1006 0.112122C20.7813 0.476581 19.1712 0.786636 18.3527 1.04707L18.9591 2.95293ZM23.4248 2.08562C25.6946 1.69652 28.1707 1.5 30.8559 1.5V-0.500002C28.0744 -0.500002 25.4838 -0.296522 23.0869 0.114377L23.4248 2.08562ZM30.8559 1.5C32.2248 1.5 33.2395 1.55 33.9237 1.64123C34.2691 1.68729 34.4903 1.73888 34.6162 1.78248C34.7962 1.84478 34.6266 1.83453 34.4921 1.60387L36.2196 0.596129C35.9684 0.165471 35.5238 -0.0197832 35.2705 -0.107487C34.9631 -0.213884 34.5926 -0.287289 34.188 -0.341229C33.3722 -0.450001 32.2536 -0.500002 30.8559 -0.500002V1.5ZM34.5238 1.6547C34.6237 1.8046 34.7559 2.19319 34.7559 3H36.7559C36.7559 2.07347 36.6213 1.1954 36.1879 0.545299L34.5238 1.6547ZM34.7559 3C34.7559 3.39321 34.7259 3.59468 34.7054 3.66787C34.6945 3.70686 34.7072 3.63118 34.7933 3.52868C34.8417 3.47104 34.9195 3.39781 35.0334 3.3397C35.1512 3.27959 35.28 3.25 35.4059 3.25V5.25C35.8101 5.25 36.126 5.05159 36.3247 4.81506C36.4983 4.6084 36.5839 4.37647 36.6313 4.20713C36.7275 3.86365 36.7559 3.44012 36.7559 3H34.7559ZM35.4059 3.25C35.4381 3.25 35.4611 3.25177 35.4661 3.25216C35.474 3.25277 35.4778 3.25322 35.4757 3.25299C35.4713 3.2525 35.4587 3.25096 35.4348 3.24755C35.3876 3.24081 35.3172 3.22976 35.2203 3.2136L34.8915 5.18639C34.9945 5.20357 35.0824 5.21751 35.1519 5.22745C35.1899 5.23287 35.3036 5.25 35.4059 5.25V3.25ZM35.2984 3.22986C34.6412 3.06555 33.7233 3 32.6059 3V5C33.6884 5 34.4039 5.06778 34.8133 5.17014L35.2984 3.22986ZM32.6059 3C31.4459 3 30.2099 3.10539 28.8999 3.31224L29.2118 5.28776C30.4351 5.09461 31.5658 5 32.6059 5V3ZM28.8999 3.31224C27.6191 3.51446 26.6001 3.72271 25.8685 3.94217L26.4432 5.85782C27.045 5.67729 27.9592 5.48554 29.2118 5.28776L28.8999 3.31224ZM25.8102 3.96166L24.8602 4.31166L25.5516 6.18834L26.5016 5.83834L25.8102 3.96166ZM24.9633 4.27986C24.2132 4.46738 23.8376 5.09263 23.6572 5.63377L25.5545 6.26623C25.5737 6.2089 25.5909 6.17056 25.6033 6.14699C25.6157 6.12348 25.621 6.11896 25.6151 6.12579C25.6087 6.13333 25.5908 6.15209 25.5591 6.17243C25.5266 6.19334 25.4885 6.21012 25.4484 6.22014L24.9633 4.27986ZM23.6149 5.81564C23.339 7.85047 23.2059 10.7878 23.2059 14.6H25.2059C25.2059 10.8122 25.3394 7.98285 25.5968 6.08436L23.6149 5.81564ZM24.2059 15.6H32.3059V13.6H24.2059V15.6ZM32.3059 15.6C32.3763 15.6 32.2543 15.6175 32.0887 15.507C31.9926 15.443 31.8982 15.3457 31.8333 15.216C31.7705 15.0903 31.7559 14.9756 31.7559 14.9H33.7559C33.7559 14.5087 33.5853 14.1011 33.1981 13.8429C32.8824 13.6325 32.5354 13.6 32.3059 13.6V15.6ZM31.7559 14.9C31.7559 15.2164 31.6079 15.7191 31.1238 16.4453L32.7879 17.5547C33.3705 16.6808 33.7559 15.7836 33.7559 14.9H31.7559ZM31.1238 16.4453C30.6877 17.0994 30.3555 17.2 30.1559 17.2V19.2C31.2896 19.2 32.1573 18.5006 32.7879 17.5547L31.1238 16.4453ZM30.1643 17.2L24.2143 17.15L24.1975 19.15L30.1475 19.2L30.1643 17.2ZM23.2061 18.1733L23.5561 33.1733L25.5556 33.1267L25.2056 18.1267L23.2061 18.1733ZM23.5559 33.15C23.5559 33.8218 23.4405 34.0995 23.3866 34.1765L25.0251 35.3235C25.4378 34.7338 25.5559 33.9449 25.5559 33.15H23.5559ZM23.4097 34.1449C22.9659 34.7288 22.1261 35.2612 20.7034 35.6324L21.2083 37.5676C22.8523 37.1388 24.1791 36.4379 25.002 35.3551L23.4097 34.1449ZM20.6783 35.6393C19.224 36.0594 18.0748 36.25 17.2059 36.25V38.25C18.3369 38.25 19.6877 38.0073 21.2334 37.5607L20.6783 35.6393ZM17.2059 36.25C17.2416 36.25 17.319 36.2555 17.4155 36.2957C17.5181 36.3384 17.6135 36.4088 17.6867 36.5003C17.8222 36.6696 17.8059 36.8098 17.8059 36.75H15.8059C15.8059 37.0235 15.8562 37.4137 16.125 37.7497C16.4279 38.1283 16.8518 38.25 17.2059 38.25V36.25ZM17.8059 36.75C17.8059 36.6987 17.8085 36.6662 17.8106 36.649C17.8129 36.6309 17.8135 36.6395 17.8045 36.6662L15.9072 36.0338C15.826 36.2773 15.8059 36.5307 15.8059 36.75H17.8059ZM17.6728 36.9267C17.8117 36.7299 17.8977 36.5032 17.9556 36.3213C18.0188 36.1228 18.0741 35.8932 18.1241 35.6421C18.2242 35.1394 18.3155 34.486 18.4002 33.6938C18.57 32.106 18.7211 29.8871 18.8548 27.047L16.857 26.953C16.7239 29.7796 16.575 31.9523 16.4115 33.4812C16.3296 34.2473 16.2458 34.8335 16.1626 35.2516C16.1209 35.461 16.0825 35.6121 16.0499 35.7146C16.0119 35.8338 16 35.8284 16.0389 35.7733L17.6728 36.9267ZM47.2016 27L48.2005 27.047L48.201 27.0339L47.2016 27ZM47.5016 18.15L48.501 18.1839L48.536 17.15H47.5016V18.15ZM44.6016 15.8L45.4057 16.3944L45.4117 16.3863L45.4176 16.378L44.6016 15.8ZM47.5016 14.6V15.6H48.5275L48.5012 14.5744L47.5016 14.6ZM47.3016 9L48.2999 8.94128L48.2994 8.93457L47.3016 9ZM46.3016 4.3L47.2014 3.86369L47.196 3.85279L46.3016 4.3ZM46.0516 3.8L46.946 3.35279L46.8986 3.25803L46.8324 3.1753L46.0516 3.8ZM46.4016 2.6L45.9878 1.68963L46.4016 2.6ZM48.0016 2L47.6983 1.04698L47.6853 1.05132L48.0016 2ZM52.6016 1.1L52.7568 2.08797L52.7705 2.08562L52.6016 1.1ZM64.7016 1.1L63.8378 1.60387L63.8529 1.62976L63.8695 1.6547L64.7016 1.1ZM64.4016 4.2L64.159 5.17014L64.1978 5.17983L64.2372 5.18639L64.4016 4.2ZM58.4016 4.3L58.5575 5.28776L58.5575 5.28776L58.4016 4.3ZM55.5016 4.9L55.2142 3.94217L55.1847 3.95102L55.1559 3.96166L55.5016 4.9ZM54.5516 5.25L54.7941 6.22014L54.8465 6.20703L54.8973 6.18834L54.5516 5.25ZM53.9516 5.95L53.0029 5.63377L52.9732 5.72272L52.9606 5.81564L53.9516 5.95ZM53.5516 14.6H52.5516V15.6H53.5516V14.6ZM61.3016 17L60.4695 16.4453L60.4695 16.4453L61.3016 17ZM59.5016 18.2L59.4932 19.2H59.5016V18.2ZM53.5516 18.15L53.56 17.15L52.5278 17.1414L52.5518 18.1733L53.5516 18.15ZM53.9016 33.15H54.9016V33.1383L54.9013 33.1267L53.9016 33.15ZM53.5516 34.75L54.3477 35.3551L54.3596 35.3395L54.3708 35.3235L53.5516 34.75ZM50.3016 36.6L50.0491 35.6324L50.0365 35.6357L50.024 35.6393L50.3016 36.6ZM46.2016 36.35L45.3846 35.7733L45.2995 35.8938L45.2529 36.0338L46.2016 36.35ZM48.201 27.0339L48.501 18.1839L46.5021 18.1161L46.2021 26.9661L48.201 27.0339ZM47.5016 17.15H44.1516V19.15H47.5016V17.15ZM44.1516 17.15C44.1144 17.15 44.2688 17.138 44.4516 17.275C44.5525 17.3507 44.6366 17.4542 44.6904 17.5751C44.7415 17.6902 44.7516 17.79 44.7516 17.85H42.7516C42.7516 18.194 42.8814 18.5974 43.2516 18.875C43.5676 19.112 43.9221 19.15 44.1516 19.15V17.15ZM44.7516 17.85C44.7516 17.557 44.8968 17.0829 45.4057 16.3944L43.7974 15.2056C43.173 16.0504 42.7516 16.943 42.7516 17.85H44.7516ZM45.4176 16.378C45.8899 15.7112 46.2424 15.6 46.4516 15.6V13.6C45.3274 13.6 44.4466 14.2888 43.7855 15.222L45.4176 16.378ZM46.4516 15.6H47.5016V13.6H46.4516V15.6ZM48.5012 14.5744C48.4346 11.9737 48.3676 10.0926 48.2998 8.94128L46.3033 9.05872C46.3689 10.1741 46.4352 12.0263 46.5019 14.6256L48.5012 14.5744ZM48.2994 8.93457C48.1625 6.84688 47.8163 5.13206 47.2014 3.86373L45.4017 4.73627C45.8535 5.66794 46.1739 7.08645 46.3037 9.06543L48.2994 8.93457ZM47.196 3.85279L46.946 3.35279L45.1571 4.24721L45.4071 4.74721L47.196 3.85279ZM46.8324 3.1753C46.8348 3.17831 46.8383 3.18325 46.842 3.18989C46.8456 3.19656 46.8484 3.20311 46.8502 3.20877C46.8521 3.21436 46.8525 3.21732 46.8524 3.21669C46.8523 3.21594 46.8516 3.21066 46.8516 3.2H44.8516C44.8516 3.63784 44.982 4.06386 45.2707 4.42469L46.8324 3.1753ZM46.8516 3.2C46.8516 3.27666 46.8357 3.35282 46.8069 3.42089C46.7791 3.48663 46.7459 3.52924 46.7262 3.55072C46.694 3.58585 46.7005 3.56258 46.8154 3.51036L45.9878 1.68963C45.5404 1.89297 44.8516 2.34189 44.8516 3.2H46.8516ZM46.8154 3.51036C47.1342 3.36543 47.6286 3.17842 48.3178 2.94868L47.6853 1.05132C46.9746 1.28824 46.4022 1.50123 45.9878 1.68963L46.8154 3.51036ZM48.3048 2.95293C48.9529 2.74669 50.4094 2.45675 52.7568 2.08788L52.4463 0.112122C50.127 0.476581 48.5169 0.786636 47.6984 1.04707L48.3048 2.95293ZM52.7705 2.08562C55.0403 1.69652 57.5164 1.5 60.2016 1.5V-0.500002C57.4201 -0.500002 54.8295 -0.296522 52.4326 0.114377L52.7705 2.08562ZM60.2016 1.5C61.5705 1.5 62.5852 1.55 63.2694 1.64123C63.6149 1.68729 63.836 1.73888 63.962 1.78248C64.1419 1.84478 63.9723 1.83453 63.8378 1.60387L65.5653 0.596129C65.3141 0.165471 64.8695 -0.0197832 64.6162 -0.107487C64.3088 -0.213884 63.9383 -0.287289 63.5337 -0.341229C62.7179 -0.450001 61.5993 -0.500002 60.2016 -0.500002V1.5ZM63.8695 1.6547C63.9694 1.8046 64.1016 2.19319 64.1016 3H66.1016C66.1016 2.07347 65.967 1.1954 65.5336 0.545299L63.8695 1.6547ZM64.1016 3C64.1016 3.39321 64.0716 3.59468 64.0511 3.66787C64.0402 3.70686 64.0529 3.63118 64.139 3.52868C64.1874 3.47104 64.2652 3.39781 64.3791 3.3397C64.4969 3.27959 64.6257 3.25 64.7516 3.25V5.25C65.1558 5.25 65.4717 5.05159 65.6704 4.81506C65.844 4.6084 65.9296 4.37647 65.977 4.20713C66.0732 3.86365 66.1016 3.44012 66.1016 3H64.1016ZM64.7516 3.25C64.7838 3.25 64.8068 3.25177 64.8119 3.25216C64.8197 3.25277 64.8235 3.25322 64.8214 3.25299C64.817 3.2525 64.8044 3.25096 64.7805 3.24755C64.7333 3.24081 64.6629 3.22976 64.566 3.2136L64.2372 5.18639C64.3402 5.20357 64.4281 5.21751 64.4976 5.22745C64.5356 5.23287 64.6493 5.25 64.7516 5.25V3.25ZM64.6441 3.22986C63.9869 3.06555 63.069 3 61.9516 3V5C63.0341 5 63.7496 5.06778 64.159 5.17014L64.6441 3.22986ZM61.9516 3C60.7916 3 59.5556 3.10539 58.2456 3.31224L58.5575 5.28776C59.7808 5.09461 60.9115 5 61.9516 5V3ZM58.2456 3.31224C56.9648 3.51446 55.9458 3.72271 55.2142 3.94217L55.7889 5.85782C56.3907 5.67729 57.3049 5.48554 58.5575 5.28776L58.2456 3.31224ZM55.1559 3.96166L54.2059 4.31166L54.8973 6.18834L55.8473 5.83834L55.1559 3.96166ZM54.309 4.27986C53.5589 4.46738 53.1833 5.09263 53.0029 5.63377L54.9002 6.26623C54.9194 6.2089 54.9366 6.17056 54.949 6.14699C54.9614 6.12348 54.9667 6.11896 54.9608 6.12579C54.9544 6.13333 54.9365 6.15209 54.9048 6.17243C54.8723 6.19334 54.8342 6.21012 54.7941 6.22014L54.309 4.27986ZM52.9606 5.81564C52.6847 7.85047 52.5516 10.7878 52.5516 14.6H54.5516C54.5516 10.8122 54.6851 7.98285 54.9425 6.08436L52.9606 5.81564ZM53.5516 15.6H61.6516V13.6H53.5516V15.6ZM61.6516 15.6C61.722 15.6 61.6 15.6175 61.4344 15.507C61.3383 15.443 61.2439 15.3457 61.179 15.216C61.1162 15.0903 61.1016 14.9756 61.1016 14.9H63.1016C63.1016 14.5087 62.931 14.1011 62.5438 13.8429C62.2281 13.6325 61.8811 13.6 61.6516 13.6V15.6ZM61.1016 14.9C61.1016 15.2164 60.9536 15.7191 60.4695 16.4453L62.1336 17.5547C62.7162 16.6808 63.1016 15.7836 63.1016 14.9H61.1016ZM60.4695 16.4453C60.0334 17.0994 59.7012 17.2 59.5016 17.2V19.2C60.6353 19.2 61.503 18.5006 62.1336 17.5547L60.4695 16.4453ZM59.51 17.2L53.56 17.15L53.5432 19.15L59.4932 19.2L59.51 17.2ZM52.5518 18.1733L52.9018 33.1733L54.9013 33.1267L54.5513 18.1267L52.5518 18.1733ZM52.9016 33.15C52.9016 33.8218 52.7862 34.0995 52.7323 34.1765L54.3708 35.3235C54.7836 34.7338 54.9016 33.9449 54.9016 33.15H52.9016ZM52.7554 34.1449C52.3116 34.7288 51.4718 35.2612 50.0491 35.6324L50.554 37.5676C52.198 37.1388 53.5248 36.4379 54.3477 35.3551L52.7554 34.1449ZM50.024 35.6393C48.5697 36.0594 47.4205 36.25 46.5516 36.25V38.25C47.6826 38.25 49.0334 38.0073 50.5791 37.5607L50.024 35.6393ZM46.5516 36.25C46.5873 36.25 46.6647 36.2555 46.7612 36.2957C46.8638 36.3384 46.9592 36.4088 47.0324 36.5003C47.1679 36.6696 47.1516 36.8098 47.1516 36.75H45.1516C45.1516 37.0235 45.2019 37.4137 45.4707 37.7497C45.7736 38.1283 46.1975 38.25 46.5516 38.25V36.25ZM47.1516 36.75C47.1516 36.6987 47.1542 36.6662 47.1563 36.649C47.1586 36.6309 47.1592 36.6395 47.1502 36.6662L45.2529 36.0338C45.1717 36.2773 45.1516 36.5307 45.1516 36.75H47.1516ZM47.0185 36.9267C47.1574 36.7299 47.2434 36.5032 47.3013 36.3213C47.3645 36.1228 47.4198 35.8932 47.4698 35.6421C47.5699 35.1394 47.6612 34.486 47.7459 33.6938C47.9157 32.106 48.0668 29.8871 48.2005 27.047L46.2027 26.953C46.0697 29.7796 45.9207 31.9523 45.7572 33.4812C45.6753 34.2473 45.5915 34.8335 45.5083 35.2516C45.4666 35.461 45.4282 35.6121 45.3956 35.7146C45.3576 35.8338 45.3457 35.8284 45.3846 35.7733L47.0185 36.9267ZM67.3844 17.15V16.15H67.3652L67.3459 16.1507L67.3844 17.15ZM65.4844 17.25V18.25H65.526L65.5674 18.2465L65.4844 17.25ZM65.2344 16.35L64.5566 15.6148L64.5416 15.6285L64.5273 15.6429L65.2344 16.35ZM80.1344 13.85L79.847 14.8078L79.847 14.8078L80.1344 13.85ZM80.6344 14L81.019 13.0769L80.9713 13.057L80.9217 13.0422L80.6344 14ZM80.8844 14.95L81.1685 15.9088L81.2245 15.8922L81.2783 15.8691L80.8844 14.95ZM78.2844 16.25L78.8467 17.0769L78.8578 17.0694L78.8687 17.0615L78.2844 16.25ZM77.0344 17.45H76.0344V17.8199L76.2751 18.1008L77.0344 17.45ZM77.3344 17.8L76.5751 18.4508L76.6901 18.5849L76.8441 18.6716L77.3344 17.8ZM79.7844 20.65L78.8677 21.0496L78.8719 21.0594L78.8764 21.0691L79.7844 20.65ZM80.7844 24.1L81.7823 24.0356L81.7822 24.0335L80.7844 24.1ZM80.8844 25.65H81.8844V25.6178L81.8823 25.5856L80.8844 25.65ZM78.1344 33.8L77.376 33.1482L77.376 33.1482L78.1344 33.8ZM66.4844 36.15L66.9213 35.2505L66.9213 35.2505L66.4844 36.15ZM63.8844 34.25L63.0756 34.8382L63.0909 34.8591L63.1071 34.8792L63.8844 34.25ZM62.5844 31.8L61.6332 32.1085L61.6395 32.128L61.6466 32.1473L62.5844 31.8ZM62.6344 24L61.6905 23.6696L61.6868 23.6802L61.6833 23.6909L62.6344 24ZM64.1844 21.05L63.4584 20.3623L63.4486 20.3726L63.4391 20.3832L64.1844 21.05ZM66.1844 19.5L65.7121 18.6185L65.7055 18.6221L66.1844 19.5ZM69.2844 19.1L70.1419 19.6145L70.2844 19.377V19.1H69.2844ZM68.9844 19.6L69.7478 20.2459L69.8001 20.184L69.8419 20.1145L68.9844 19.6ZM67.3844 23L66.4116 22.7684L66.4089 22.7794L66.4066 22.7905L67.3844 23ZM68.2344 32.35L67.3864 32.88L67.3942 32.8925L67.4023 32.9047L68.2344 32.35ZM69.3844 33.5L69.9184 32.6545L69.9085 32.6483L69.3844 33.5ZM73.4344 33.3L74.0591 34.0809L74.0707 34.0716L74.082 34.0619L73.4344 33.3ZM74.8844 31.1L73.9435 30.7613L73.9395 30.7725L73.9357 30.7838L74.8844 31.1ZM73.6344 19.45L72.8958 20.1243L72.9038 20.1329L73.6344 19.45ZM67.3459 16.1507C66.4773 16.1841 65.8251 16.2181 65.4013 16.2535L65.5674 18.2465C65.9437 18.2152 66.5581 18.1825 67.4228 18.1493L67.3459 16.1507ZM65.4844 16.25C65.3592 16.25 65.4228 16.2273 65.5507 16.2971C65.6297 16.3402 65.7377 16.4218 65.822 16.5598C65.9077 16.7 65.9344 16.8419 65.9344 16.95H63.9344C63.9344 17.1581 63.9839 17.3875 64.1155 17.6027C64.2456 17.8157 64.4223 17.9598 64.593 18.0529C64.9043 18.2227 65.2429 18.25 65.4844 18.25V16.25ZM65.9344 16.95C65.9344 16.9842 65.93 17.0157 65.9233 17.0425C65.9167 17.069 65.9087 17.0874 65.9038 17.0972C65.8949 17.1149 65.8983 17.1003 65.9415 17.0571L64.5273 15.6429C64.2183 15.9519 63.9344 16.3912 63.9344 16.95H65.9344ZM65.9122 17.0852C67.7648 15.3773 71.0473 14.4 76.0344 14.4V12.4C70.8881 12.4 66.9706 13.3893 64.5566 15.6148L65.9122 17.0852ZM76.0344 14.4C77.7255 14.4 78.9814 14.5481 79.847 14.8078L80.4217 12.8922C79.2873 12.5519 77.8099 12.4 76.0344 12.4V14.4ZM79.847 14.8078L80.347 14.9578L80.9217 13.0422L80.4217 12.8922L79.847 14.8078ZM80.2498 14.9231C80.3183 14.9516 80.3644 14.9752 80.393 14.9919C80.4226 15.0092 80.4235 15.0133 80.4087 14.9997C80.3939 14.9861 80.3508 14.9434 80.3103 14.8657C80.267 14.7826 80.2344 14.6739 80.2344 14.55H82.2344C82.2344 14.0803 81.99 13.7361 81.7601 13.5253C81.539 13.3227 81.27 13.1815 81.019 13.0769L80.2498 14.9231ZM80.2344 14.55C80.2344 14.4722 80.2485 14.3885 80.2805 14.3063C80.3121 14.225 80.3546 14.1619 80.3943 14.1165C80.4677 14.0326 80.5249 14.0161 80.4905 14.0309L81.2783 15.8691C81.6599 15.7056 82.2344 15.3107 82.2344 14.55H80.2344ZM80.6003 13.9912C79.583 14.2926 78.616 14.779 77.7001 15.4385L78.8687 17.0615C79.6195 16.521 80.3857 16.1407 81.1685 15.9088L80.6003 13.9912ZM77.7221 15.4231C77.2878 15.7184 76.9221 15.9966 76.6543 16.2536C76.5212 16.3814 76.3856 16.5291 76.2771 16.6941C76.1785 16.844 76.0344 17.1091 76.0344 17.45H78.0344C78.0344 17.5688 78.0082 17.6584 77.9891 17.7089C77.9699 17.7595 77.9513 17.7883 77.9479 17.7934C77.9435 17.8 77.9642 17.7686 78.0394 17.6964C78.1883 17.5534 78.4476 17.3483 78.8467 17.0769L77.7221 15.4231ZM76.2751 18.1008L76.5751 18.4508L78.0936 17.1492L77.7936 16.7992L76.2751 18.1008ZM76.8441 18.6716C77.6919 19.1485 78.3736 19.9162 78.8677 21.0496L80.7011 20.2504C80.0618 18.7838 79.1102 17.6515 77.8246 16.9284L76.8441 18.6716ZM78.8764 21.0691C79.4453 22.3017 79.7307 23.3288 79.7866 24.1665L81.7822 24.0335C81.7047 22.8712 81.3234 21.5983 80.6923 20.2309L78.8764 21.0691ZM79.7865 24.1644L79.8865 25.7144L81.8823 25.5856L81.7823 24.0356L79.7865 24.1644ZM79.8844 25.65C79.8844 28.7545 79.0271 31.2269 77.376 33.1482L78.8928 34.4518C80.9083 32.1065 81.8844 29.1455 81.8844 25.65H79.8844ZM77.376 33.1482C75.7578 35.0312 73.5506 36 70.6344 36V38C74.0515 38 76.8443 36.8355 78.8928 34.4518L77.376 33.1482ZM70.6344 36C69.1511 36 67.9237 35.7374 66.9213 35.2505L66.0475 37.0495C67.3783 37.6959 68.9176 38 70.6344 38V36ZM66.9213 35.2505C65.8328 34.7218 65.1047 34.1681 64.6616 33.6208L63.1071 34.8792C63.7974 35.7319 64.8027 36.4449 66.0475 37.0495L66.9213 35.2505ZM64.6931 33.6618C64.2167 33.0067 63.8255 32.2719 63.5221 31.4527L61.6466 32.1473C62.0099 33.1281 62.4854 34.0266 63.0756 34.8382L64.6931 33.6618ZM63.5356 31.4915C63.168 30.3581 62.9844 29.1955 62.9844 28H60.9844C60.9844 29.4045 61.2007 30.7753 61.6332 32.1085L63.5356 31.4915ZM62.9844 28C62.9844 26.7769 63.1828 25.5478 63.5854 24.3091L61.6833 23.6909C61.2192 25.1189 60.9844 26.5564 60.9844 28H62.9844ZM63.5782 24.3304C64.0264 23.0497 64.4899 22.2082 64.9296 21.7168L63.4391 20.3832C62.7455 21.1584 62.1756 22.2836 61.6905 23.6696L63.5782 24.3304ZM64.9103 21.7377C65.4416 21.1769 66.0257 20.7256 66.6632 20.3779L65.7055 18.6221C64.8764 19.0744 64.1271 19.6564 63.4584 20.3623L64.9103 21.7377ZM66.6566 20.3815C67.5504 19.9027 68.1209 19.75 68.4344 19.75V17.75C67.6145 17.75 66.685 18.0973 65.7122 18.6185L66.6566 20.3815ZM68.4344 19.75C68.5441 19.75 68.6207 19.7558 68.6703 19.7626C68.7232 19.7698 68.723 19.7753 68.6911 19.7622C68.6605 19.7496 68.5551 19.701 68.454 19.5761C68.3397 19.4349 68.2844 19.2617 68.2844 19.1H70.2844C70.2844 18.8216 70.1936 18.5463 70.0085 18.3177C69.8366 18.1053 69.6249 17.9838 69.4526 17.9128C69.1272 17.7788 68.7564 17.75 68.4344 17.75V19.75ZM68.4269 18.5855L68.1269 19.0855L69.8419 20.1145L70.1419 19.6145L68.4269 18.5855ZM68.221 18.9541C67.3629 19.9682 66.7718 21.2555 66.4116 22.7684L68.3572 23.2316C68.6636 21.9445 69.1392 20.9651 69.7478 20.2459L68.221 18.9541ZM66.4066 22.7905C66.096 24.2399 65.9344 25.5622 65.9344 26.75H67.9344C67.9344 25.7378 68.0728 24.5601 68.3622 23.2095L66.4066 22.7905ZM65.9344 26.75C65.9344 27.9009 66.0783 29.049 66.3642 30.1925L68.3045 29.7075C68.0571 28.7177 67.9344 27.7324 67.9344 26.75H65.9344ZM66.3642 30.1925C66.6403 31.2968 66.9709 32.2153 67.3864 32.88L69.0824 31.82C68.8311 31.418 68.5618 30.7365 68.3045 29.7075L66.3642 30.1925ZM67.4023 32.9047C67.8014 33.5032 68.2838 33.9969 68.8603 34.3517L69.9085 32.6483C69.6183 32.4697 69.3341 32.1968 69.0664 31.7953L67.4023 32.9047ZM68.8504 34.3455C69.6318 34.839 70.482 35.1 71.3844 35.1V33.1C70.8868 33.1 70.4036 32.961 69.9184 32.6545L68.8504 34.3455ZM71.3844 35.1C72.358 35.1 73.2553 34.7239 74.0591 34.0809L72.8097 32.5191C72.2802 32.9427 71.8107 33.1 71.3844 33.1V35.1ZM74.082 34.0619C74.8995 33.3671 75.4803 32.4744 75.8331 31.4162L73.9357 30.7838C73.6884 31.5256 73.3026 32.0996 72.7867 32.5381L74.082 34.0619ZM75.8253 31.4387C76.4643 29.6637 76.7844 27.8325 76.7844 25.95H74.7844C74.7844 27.6009 74.5045 29.203 73.9435 30.7613L75.8253 31.4387ZM76.7844 25.95C76.7844 22.983 76.0226 20.5405 74.3649 18.7671L72.9038 20.1329C74.1128 21.4262 74.7844 23.317 74.7844 25.95H76.7844ZM74.3729 18.7757C72.7261 16.9722 70.3341 16.15 67.3844 16.15V18.15C69.968 18.15 71.7426 18.8612 72.8959 20.1243L74.3729 18.7757ZM88.3805 17.15V16.15H88.3612L88.342 16.1507L88.3805 17.15ZM86.4805 17.25V18.25H86.5221L86.5635 18.2465L86.4805 17.25ZM86.2305 16.35L85.5527 15.6148L85.5377 15.6285L85.5234 15.6429L86.2305 16.35ZM101.13 13.85L100.843 14.8078L100.843 14.8078L101.13 13.85ZM101.63 14L102.015 13.0769L101.967 13.057L101.918 13.0422L101.63 14ZM101.88 14.95L102.165 15.9088L102.221 15.8922L102.274 15.8691L101.88 14.95ZM99.2805 16.25L99.8428 17.0769L99.8539 17.0694L99.8648 17.0615L99.2805 16.25ZM98.0305 17.45H97.0305V17.8199L97.2712 18.1008L98.0305 17.45ZM98.3305 17.8L97.5712 18.4508L97.6862 18.5849L97.8402 18.6716L98.3305 17.8ZM100.78 20.65L99.8638 21.0496L99.868 21.0594L99.8725 21.0691L100.78 20.65ZM101.78 24.1L102.778 24.0356L102.778 24.0335L101.78 24.1ZM101.88 25.65H102.88V25.6178L102.878 25.5856L101.88 25.65ZM99.1305 33.8L98.3721 33.1482L98.3721 33.1482L99.1305 33.8ZM87.4805 36.15L87.9174 35.2505L87.9174 35.2505L87.4805 36.15ZM84.8805 34.25L84.0717 34.8382L84.0869 34.8591L84.1032 34.8792L84.8805 34.25ZM83.5805 31.8L82.6292 32.1085L82.6356 32.128L82.6427 32.1473L83.5805 31.8ZM83.6305 24L82.6866 23.6696L82.6829 23.6802L82.6794 23.6909L83.6305 24ZM85.1805 21.05L84.4545 20.3623L84.4447 20.3726L84.4352 20.3832L85.1805 21.05ZM87.1805 19.5L86.7082 18.6185L86.7016 18.6221L87.1805 19.5ZM90.2805 19.1L91.138 19.6145L91.2805 19.377V19.1H90.2805ZM89.9805 19.6L90.7439 20.2459L90.7962 20.184L90.838 20.1145L89.9805 19.6ZM88.3805 23L87.4077 22.7684L87.405 22.7794L87.4027 22.7905L88.3805 23ZM89.2305 32.35L88.3825 32.88L88.3903 32.8925L88.3984 32.9047L89.2305 32.35ZM90.3805 33.5L90.9145 32.6545L90.9046 32.6483L90.3805 33.5ZM94.4305 33.3L95.0552 34.0809L95.0668 34.0716L95.0781 34.0619L94.4305 33.3ZM95.8805 31.1L94.9396 30.7613L94.9356 30.7725L94.9318 30.7838L95.8805 31.1ZM94.6305 19.45L93.8919 20.1243L93.8999 20.1329L94.6305 19.45ZM88.342 16.1507C87.4734 16.1841 86.8212 16.2181 86.3974 16.2535L86.5635 18.2465C86.9398 18.2152 87.5542 18.1825 88.4189 18.1493L88.342 16.1507ZM86.4805 16.25C86.3553 16.25 86.4189 16.2273 86.5468 16.2971C86.6258 16.3402 86.7338 16.4218 86.8181 16.5598C86.9038 16.7 86.9305 16.8419 86.9305 16.95H84.9305C84.9305 17.1581 84.98 17.3875 85.1116 17.6027C85.2417 17.8157 85.4184 17.9598 85.5891 18.0529C85.9004 18.2227 86.239 18.25 86.4805 18.25V16.25ZM86.9305 16.95C86.9305 16.9842 86.9261 17.0157 86.9194 17.0425C86.9127 17.069 86.9048 17.0874 86.8999 17.0972C86.891 17.1149 86.8944 17.1003 86.9376 17.0571L85.5234 15.6429C85.2144 15.9519 84.9305 16.3912 84.9305 16.95H86.9305ZM86.9083 17.0852C88.7609 15.3773 92.0434 14.4 97.0305 14.4V12.4C91.8842 12.4 87.9667 13.3893 85.5527 15.6148L86.9083 17.0852ZM97.0305 14.4C98.7216 14.4 99.9775 14.5481 100.843 14.8078L101.418 12.8922C100.283 12.5519 98.806 12.4 97.0305 12.4V14.4ZM100.843 14.8078L101.343 14.9578L101.918 13.0422L101.418 12.8922L100.843 14.8078ZM101.246 14.9231C101.314 14.9516 101.361 14.9752 101.389 14.9919C101.419 15.0092 101.42 15.0133 101.405 14.9997C101.39 14.9861 101.347 14.9434 101.306 14.8657C101.263 14.7826 101.23 14.6739 101.23 14.55H103.23C103.23 14.0803 102.986 13.7361 102.756 13.5253C102.535 13.3227 102.266 13.1815 102.015 13.0769L101.246 14.9231ZM101.23 14.55C101.23 14.4722 101.245 14.3885 101.277 14.3063C101.308 14.225 101.351 14.1619 101.39 14.1165C101.464 14.0326 101.521 14.0161 101.487 14.0309L102.274 15.8691C102.656 15.7056 103.23 15.3107 103.23 14.55H101.23ZM101.596 13.9912C100.579 14.2926 99.6121 14.779 98.6962 15.4385L99.8648 17.0615C100.616 16.521 101.382 16.1407 102.165 15.9088L101.596 13.9912ZM98.7182 15.4231C98.2839 15.7184 97.9182 15.9966 97.6504 16.2536C97.5173 16.3814 97.3817 16.5291 97.2732 16.6941C97.1746 16.844 97.0305 17.1091 97.0305 17.45H99.0305C99.0305 17.5688 99.0043 17.6584 98.9852 17.7089C98.966 17.7595 98.9474 17.7883 98.944 17.7934C98.9396 17.8 98.9603 17.7686 99.0355 17.6964C99.1844 17.5534 99.4437 17.3483 99.8428 17.0769L98.7182 15.4231ZM97.2712 18.1008L97.5712 18.4508L99.0897 17.1492L98.7897 16.7992L97.2712 18.1008ZM97.8402 18.6716C98.688 19.1485 99.3697 19.9162 99.8638 21.0496L101.697 20.2504C101.058 18.7838 100.106 17.6515 98.8207 16.9284L97.8402 18.6716ZM99.8725 21.0691C100.441 22.3017 100.727 23.3288 100.783 24.1665L102.778 24.0335C102.701 22.8712 102.319 21.5983 101.688 20.2309L99.8725 21.0691ZM100.783 24.1644L100.883 25.7144L102.878 25.5856L102.778 24.0356L100.783 24.1644ZM100.88 25.65C100.88 28.7545 100.023 31.2269 98.3721 33.1482L99.8889 34.4518C101.904 32.1065 102.88 29.1455 102.88 25.65H100.88ZM98.3721 33.1482C96.7539 35.0312 94.5467 36 91.6305 36V38C95.0476 38 97.8404 36.8355 99.8889 34.4518L98.3721 33.1482ZM91.6305 36C90.1472 36 88.9198 35.7374 87.9174 35.2505L87.0436 37.0495C88.3744 37.6959 89.9137 38 91.6305 38V36ZM87.9174 35.2505C86.8289 34.7218 86.1007 34.1681 85.6577 33.6208L84.1032 34.8792C84.7935 35.7319 85.7988 36.4449 87.0436 37.0495L87.9174 35.2505ZM85.6892 33.6618C85.2127 33.0067 84.8216 32.2719 84.5182 31.4527L82.6427 32.1473C83.006 33.1281 83.4815 34.0266 84.0717 34.8382L85.6892 33.6618ZM84.5317 31.4915C84.1641 30.3581 83.9805 29.1955 83.9805 28H81.9805C81.9805 29.4045 82.1968 30.7753 82.6292 32.1085L84.5317 31.4915ZM83.9805 28C83.9805 26.7769 84.1789 25.5478 84.5815 24.3091L82.6794 23.6909C82.2153 25.1189 81.9805 26.5564 81.9805 28H83.9805ZM84.5743 24.3304C85.0225 23.0497 85.486 22.2082 85.9257 21.7168L84.4352 20.3832C83.7416 21.1584 83.1717 22.2836 82.6866 23.6696L84.5743 24.3304ZM85.9064 21.7377C86.4377 21.1769 87.0218 20.7256 87.6593 20.3779L86.7016 18.6221C85.8725 19.0744 85.1232 19.6564 84.4545 20.3623L85.9064 21.7377ZM87.6527 20.3815C88.5465 19.9027 89.117 19.75 89.4305 19.75V17.75C88.6106 17.75 87.6811 18.0973 86.7082 18.6185L87.6527 20.3815ZM89.4305 19.75C89.5401 19.75 89.6168 19.7558 89.6664 19.7626C89.7193 19.7698 89.7191 19.7753 89.6872 19.7622C89.6566 19.7496 89.5512 19.701 89.4501 19.5761C89.3358 19.4349 89.2805 19.2617 89.2805 19.1H91.2805C91.2805 18.8216 91.1897 18.5463 91.0046 18.3177C90.8327 18.1053 90.621 17.9838 90.4487 17.9128C90.1233 17.7788 89.7525 17.75 89.4305 17.75V19.75ZM89.423 18.5855L89.123 19.0855L90.838 20.1145L91.138 19.6145L89.423 18.5855ZM89.2171 18.9541C88.359 19.9682 87.7679 21.2555 87.4077 22.7684L89.3533 23.2316C89.6597 21.9445 90.1353 20.9651 90.7439 20.2459L89.2171 18.9541ZM87.4027 22.7905C87.0921 24.2399 86.9305 25.5622 86.9305 26.75H88.9305C88.9305 25.7378 89.0689 24.5601 89.3583 23.2095L87.4027 22.7905ZM86.9305 26.75C86.9305 27.9009 87.0744 29.049 87.3603 30.1925L89.3006 29.7075C89.0532 28.7177 88.9305 27.7324 88.9305 26.75H86.9305ZM87.3603 30.1925C87.6364 31.2968 87.967 32.2153 88.3825 32.88L90.0785 31.82C89.8272 31.418 89.5579 30.7365 89.3006 29.7075L87.3603 30.1925ZM88.3984 32.9047C88.7974 33.5032 89.2799 33.9969 89.8564 34.3517L90.9046 32.6483C90.6144 32.4697 90.3302 32.1968 90.0625 31.7953L88.3984 32.9047ZM89.8465 34.3455C90.6279 34.839 91.4781 35.1 92.3805 35.1V33.1C91.8829 33.1 91.3997 32.961 90.9145 32.6545L89.8465 34.3455ZM92.3805 35.1C93.3541 35.1 94.2514 34.7239 95.0552 34.0809L93.8058 32.5191C93.2763 32.9427 92.8068 33.1 92.3805 33.1V35.1ZM95.0781 34.0619C95.8956 33.3671 96.4764 32.4744 96.8292 31.4162L94.9318 30.7838C94.6845 31.5256 94.2987 32.0996 93.7828 32.5381L95.0781 34.0619ZM96.8214 31.4387C97.4604 29.6637 97.7805 27.8325 97.7805 25.95H95.7805C95.7805 27.6009 95.5006 29.203 94.9396 30.7613L96.8214 31.4387ZM97.7805 25.95C97.7805 22.983 97.0187 20.5405 95.361 18.7671L93.8999 20.1329C95.1089 21.4262 95.7805 23.317 95.7805 25.95H97.7805ZM95.369 18.7757C93.7222 16.9722 91.3302 16.15 88.3805 16.15V18.15C90.9641 18.15 92.7387 18.8612 93.892 20.1243L95.369 18.7757ZM116.077 13.8L115.74 14.7417L115.779 14.7556L115.819 14.7662L116.077 13.8ZM116.877 14V15H117.239L117.517 14.7682L116.877 14ZM117.177 13.75L117.817 14.5182L118.194 14.2039L118.176 13.7133L117.177 13.75ZM116.977 8.3L117.976 8.26333L117.975 8.24602L117.974 8.22875L116.977 8.3ZM115.477 4.6L116.077 3.8L116.022 3.75901L115.962 3.72584L115.477 4.6ZM115.027 4.35L114.472 5.18205L114.506 5.2045L114.541 5.22416L115.027 4.35ZM117.027 2.15L116.635 1.22981L116.628 1.23293L117.027 2.15ZM122.077 1.7L123.066 1.5545L123.063 1.53776L123.06 1.52111L122.077 1.7ZM122.077 17.55L121.078 17.4957L121.078 17.5066L122.077 17.55ZM122.627 35.3L121.732 35.7472L121.745 35.772L121.758 35.7961L122.627 35.3ZM116.577 34.75H117.577V34.6877L117.569 34.626L116.577 34.75ZM116.777 26.05L115.779 25.9741L115.779 25.9842L116.777 26.05ZM113.527 31.2L113.878 32.1363L113.906 32.1259L113.933 32.1138L113.527 31.2ZM114.677 31.5L113.748 31.8714L113.764 31.91L113.782 31.9472L114.677 31.5ZM113.577 35.4L114.225 36.1612L114.233 36.1544L114.241 36.1474L113.577 35.4ZM105.727 33.95L104.856 34.4426L104.862 34.4524L104.868 34.4621L105.727 33.95ZM106.577 18.2L105.708 17.7038L105.701 17.7161L106.577 18.2ZM109.827 14.85L110.347 15.7038L110.355 15.6992L110.362 15.6945L109.827 14.85ZM114.477 14.55C114.985 14.55 115.402 14.6208 115.74 14.7417L116.413 12.8583C115.818 12.6459 115.168 12.55 114.477 12.55V14.55ZM115.819 14.7662C116.07 14.8333 116.268 14.8849 116.409 14.9201C116.479 14.9376 116.541 14.9525 116.591 14.9637C116.615 14.9691 116.645 14.9753 116.674 14.9807C116.675 14.9809 116.769 15 116.877 15V13C116.942 13 116.991 13.0068 117 13.008C117.017 13.0103 117.029 13.0124 117.032 13.013C117.039 13.0142 117.038 13.0142 117.025 13.0113C117 13.0058 116.958 12.9958 116.894 12.9799C116.768 12.9484 116.583 12.9 116.334 12.8338L115.819 14.7662ZM117.517 14.7682L117.817 14.5182L116.536 12.9818L116.236 13.2318L117.517 14.7682ZM118.176 13.7133L117.976 8.26333L115.977 8.33667L116.177 13.7867L118.176 13.7133ZM117.974 8.22875C117.9 7.19678 117.676 6.26261 117.271 5.45278L115.482 6.34721C115.744 6.87072 115.919 7.53655 115.979 8.37125L117.974 8.22875ZM117.271 5.45278C116.934 4.77828 116.547 4.15289 116.077 3.8L114.877 5.4C114.877 5.4001 114.876 5.3999 114.877 5.4C114.877 5.4001 114.876 5.39991 114.877 5.40001C114.877 5.40002 114.877 5.40004 114.877 5.40006C114.877 5.40009 114.877 5.40015 114.877 5.40022C114.877 5.40037 114.877 5.40059 114.878 5.40089C114.878 5.4015 114.88 5.4024 114.881 5.40362C114.884 5.40609 114.888 5.40975 114.893 5.41479C114.904 5.42499 114.919 5.43987 114.938 5.46054C114.975 5.50252 115.023 5.56224 115.079 5.64421C115.194 5.80972 115.329 6.04037 115.482 6.34721L117.271 5.45278ZM115.962 3.72584L115.512 3.47584L114.541 5.22416L114.991 5.47416L115.962 3.72584ZM115.581 3.51795C115.556 3.50144 115.59 3.51794 115.634 3.5828C115.684 3.65803 115.727 3.76969 115.727 3.9H113.727C113.727 4.53371 114.126 4.95147 114.472 5.18205L115.581 3.51795ZM115.727 3.9C115.727 4.15676 115.56 4.14758 115.907 3.88333C116.197 3.66306 116.687 3.38814 117.425 3.06707L116.628 1.23293C115.833 1.57853 115.173 1.9286 114.696 2.29167C114.277 2.61075 113.727 3.14324 113.727 3.9H115.727ZM117.418 3.07015C118.957 2.41517 120.02 2.15 120.677 2.15V0.149999C119.6 0.149999 118.229 0.551494 116.635 1.22984L117.418 3.07015ZM120.677 2.15C120.86 2.15 121.005 2.15981 121.115 2.17505C121.228 2.19059 121.288 2.20936 121.311 2.21825C121.334 2.22732 121.292 2.21567 121.234 2.15552C121.166 2.08622 121.113 1.98787 121.093 1.87888L123.06 1.52111C122.944 0.883244 122.473 0.526073 122.042 0.356747C121.637 0.197605 121.157 0.149999 120.677 0.149999V2.15ZM121.087 1.84549C121.242 2.89575 121.327 4.99158 121.327 8.2H123.327C123.327 5.00842 123.245 2.77092 123.066 1.5545L121.087 1.84549ZM121.327 8.2C121.327 11.3491 121.244 14.4477 121.078 17.4957L123.075 17.6043C123.243 14.519 123.327 11.3842 123.327 8.2H121.327ZM121.078 17.5066C120.943 20.5909 120.877 24.0892 120.877 28H122.877C122.877 24.1108 122.943 20.6424 123.076 17.5934L121.078 17.5066ZM120.877 28C120.877 29.9503 120.939 31.563 121.069 32.8272C121.195 34.0554 121.395 35.0722 121.732 35.7472L123.521 34.8528C123.358 34.5278 123.183 33.8279 123.059 32.6228C122.939 31.4537 122.877 29.9163 122.877 28H120.877ZM121.758 35.7961C121.834 35.9284 121.827 35.9738 121.827 35.95H123.827C123.827 35.5262 123.686 35.1383 123.495 34.8039L121.758 35.7961ZM121.827 35.95C121.827 35.8072 121.888 35.6719 121.969 35.5873C122.028 35.526 122.054 35.5356 121.96 35.5683C121.763 35.6367 121.362 35.7 120.677 35.7V37.7C121.424 37.7 122.098 37.6383 122.618 37.4567C123.132 37.2775 123.827 36.8376 123.827 35.95H121.827ZM120.677 35.7C119.357 35.7 118.512 35.5381 118.031 35.3094C117.804 35.2014 117.7 35.098 117.652 35.0292C117.61 34.9691 117.577 34.8894 117.577 34.75H115.577C115.577 35.2606 115.714 35.7496 116.014 36.1771C116.307 36.5957 116.716 36.8986 117.172 37.1156C118.058 37.5369 119.262 37.7 120.677 37.7V35.7ZM117.569 34.626C117.51 34.1573 117.477 33.392 117.477 32.3H115.477C115.477 33.408 115.51 34.2761 115.584 34.874L117.569 34.626ZM117.477 32.3C117.477 31.2041 117.574 29.1518 117.774 26.1158L115.779 25.9842C115.579 29.0148 115.477 31.1292 115.477 32.3H117.477ZM117.774 26.1259C118.008 23.0518 118.127 20.6718 118.127 19H116.127C116.127 20.5949 116.012 22.9149 115.779 25.9741L117.774 26.1259ZM118.127 19C118.127 18.0125 117.879 17.0882 117.209 16.4179C116.538 15.7475 115.614 15.5 114.627 15.5V17.5C115.306 17.5 115.631 17.6691 115.794 17.8321C115.957 17.9951 116.127 18.3208 116.127 19H118.127ZM114.627 15.5C113.596 15.5 112.659 15.8103 111.852 16.4339C111.06 17.0464 110.443 17.9232 109.964 18.9909L111.789 19.8091C112.177 18.9435 112.618 18.3703 113.076 18.0161C113.519 17.673 114.023 17.5 114.627 17.5V15.5ZM109.964 18.9909C109.045 21.0405 108.577 23.1126 108.577 25.2H110.577C110.577 23.4207 110.974 21.6262 111.789 19.8091L109.964 18.9909ZM108.577 25.2C108.577 27.3017 108.836 29.0276 109.459 30.2626C109.777 30.8944 110.205 31.4272 110.769 31.7997C111.338 32.1761 111.987 32.35 112.677 32.35V30.35C112.333 30.35 112.078 30.2676 111.872 30.1315C111.66 29.9915 111.443 29.7556 111.245 29.3624C110.834 28.5474 110.577 27.1983 110.577 25.2H108.577ZM112.677 32.35C113.09 32.35 113.493 32.2806 113.878 32.1363L113.175 30.2637C113.027 30.3194 112.863 30.35 112.677 30.35V32.35ZM113.933 32.1138C114.074 32.0511 114.171 32.0117 114.231 31.9898C114.261 31.9787 114.27 31.9767 114.262 31.9787C114.258 31.9799 114.242 31.984 114.217 31.9883C114.196 31.9921 114.145 32 114.077 32V30C113.926 30 113.799 30.0323 113.747 30.0463C113.677 30.0649 113.608 30.088 113.547 30.1102C113.424 30.155 113.279 30.2155 113.12 30.2862L113.933 32.1138ZM114.077 32C114.037 32 113.985 31.9936 113.928 31.973C113.87 31.9523 113.822 31.9229 113.786 31.8932C113.72 31.8376 113.721 31.8034 113.748 31.8714L115.605 31.1286C115.499 30.8633 115.333 30.579 115.067 30.3568C114.782 30.1198 114.438 30 114.077 30V32ZM113.782 31.9472C113.888 32.1583 113.927 32.3394 113.927 32.5H115.927C115.927 31.9939 115.799 31.5084 115.571 31.0528L113.782 31.9472ZM113.927 32.5C113.927 33.3281 113.614 34.0289 112.912 34.6526L114.241 36.1474C115.339 35.1711 115.927 33.9386 115.927 32.5H113.927ZM112.928 34.6388C112.227 35.2356 111.364 35.55 110.277 35.55V37.55C111.789 37.55 113.126 37.0977 114.225 36.1612L112.928 34.6388ZM110.277 35.55C108.633 35.55 107.44 34.872 106.586 33.4379L104.868 34.4621C106.079 36.4946 107.92 37.55 110.277 37.55V35.55ZM106.597 33.4574C105.703 31.8775 105.227 29.8748 105.227 27.4H103.227C103.227 30.1252 103.751 32.4892 104.856 34.4426L106.597 33.4574ZM105.227 27.4C105.227 24.2659 105.969 21.3661 107.452 18.6839L105.701 17.7161C104.051 20.7005 103.227 23.9341 103.227 27.4H105.227ZM107.445 18.6961C108.162 17.4417 109.126 16.4485 110.347 15.7038L109.306 13.9962C107.794 14.9182 106.591 16.1583 105.708 17.7039L107.445 18.6961ZM110.362 15.6945C111.557 14.9367 112.919 14.55 114.477 14.55V12.55C112.568 12.55 110.829 13.03 109.291 14.0055L110.362 15.6945ZM139.432 32.9L138.549 32.4308L138.543 32.4417L138.538 32.4528L139.432 32.9ZM137.582 35.25L137.001 34.4363L137.001 34.4363L137.582 35.25ZM135.082 36.45L134.786 35.4949L134.781 35.4964L135.082 36.45ZM126.232 35.8L125.715 36.6557L125.722 36.6602L125.729 36.6645L126.232 35.8ZM124.982 29L124.24 28.3297L124.231 28.3393L124.223 28.3492L124.982 29ZM128.682 28.8L127.733 28.4838L127.726 28.5044L127.721 28.5253L128.682 28.8ZM129.332 32.55L128.625 33.2571L128.635 33.2672L128.645 33.277L129.332 32.55ZM133.482 33L133.953 33.8824L133.975 33.8705L133.997 33.8575L133.482 33ZM134.532 31.9L133.638 31.4528L133.631 31.4668L133.624 31.4809L134.532 31.9ZM133.532 27.7L134.119 26.8901L134.119 26.8901L133.532 27.7ZM130.332 26.05L130.656 25.1041L130.656 25.1041L130.332 26.05ZM127.132 24.05L126.437 24.7694L126.437 24.7694L127.132 24.05ZM127.932 15.15L127.316 14.3624L127.307 14.3691L127.932 15.15ZM137.682 13.85L137.421 14.8154L137.436 14.8195L137.452 14.8231L137.682 13.85ZM139.182 17.5L138.26 17.1119L138.252 17.1329L138.244 17.1543L139.182 17.5ZM137.882 18.25L136.954 18.6214L136.969 18.66L136.988 18.6972L137.882 18.25ZM137.532 17.7L138.3 17.0598L138.3 17.0598L137.532 17.7ZM136.332 16.95L135.866 17.8349L135.885 17.8447L135.904 17.8537L136.332 16.95ZM133.782 16.5V17.5H133.881L133.978 17.4806L133.782 16.5ZM133.032 16.65L133.211 17.6339L133.253 17.6261L133.295 17.6148L133.032 16.65ZM132.032 17L131.546 16.1258L131.54 16.1294L132.032 17ZM131.232 20.1L130.479 20.7585L130.501 20.7836L130.525 20.8071L131.232 20.1ZM131.782 20.65L131.075 21.3571L131.075 21.3571L131.782 20.65ZM132.482 21.15L131.968 22.0075L132 22.0273L132.035 22.0444L132.482 21.15ZM133.182 21.5L132.735 22.3944L132.735 22.3944L133.182 21.5ZM134.082 21.95L133.635 22.8444L133.661 22.8576L133.688 22.8691L134.082 21.95ZM134.982 22.35L134.535 23.2444L134.545 23.2495L134.555 23.2544L134.982 22.35ZM139.282 29.15C139.282 30.4502 139.026 31.5334 138.549 32.4308L140.315 33.3692C140.972 32.1333 141.282 30.7165 141.282 29.15H139.282ZM138.538 32.4528C138.051 33.4269 137.527 34.0606 137.001 34.4363L138.163 36.0637C139.037 35.4394 139.747 34.5064 140.326 33.3472L138.538 32.4528ZM137.001 34.4363C136.401 34.8644 135.668 35.2211 134.786 35.4949L135.378 37.4051C136.429 37.0789 137.363 36.6356 138.163 36.0637L137.001 34.4363ZM134.781 35.4964C133.585 35.874 132.539 36.05 131.632 36.05V38.05C132.792 38.05 134.045 37.826 135.383 37.4036L134.781 35.4964ZM131.632 36.05C129.589 36.05 127.975 35.6569 126.735 34.9355L125.729 36.6645C127.355 37.6098 129.342 38.05 131.632 38.05V36.05ZM126.749 34.9443C125.655 34.2822 125.082 33.2646 125.082 31.7H123.082C123.082 33.8687 123.943 35.5844 125.715 36.6557L126.749 34.9443ZM125.082 31.7C125.082 30.7904 125.325 30.136 125.741 29.6508L124.223 28.3492C123.439 29.264 123.082 30.4096 123.082 31.7H125.082ZM125.724 29.6703C126.483 28.8301 127.337 28.45 128.332 28.45V26.45C126.727 26.45 125.348 27.1033 124.24 28.3297L125.724 29.6703ZM128.332 28.45C128.398 28.45 128.262 28.4671 128.106 28.3247C127.934 28.1672 127.932 27.9943 127.932 28H129.932C129.932 27.6391 129.83 27.1912 129.458 26.8503C129.102 26.5246 128.666 26.45 128.332 26.45V28.45ZM127.932 28C127.932 27.918 127.943 27.8558 127.945 27.8446C127.948 27.8226 127.952 27.8069 127.953 27.8018C127.955 27.7912 127.956 27.7891 127.953 27.8011C127.947 27.8233 127.935 27.8636 127.915 27.9267C127.876 28.0509 127.816 28.2355 127.733 28.4838L129.631 29.1162C129.715 28.8645 129.779 28.6657 129.824 28.5233C129.846 28.453 129.865 28.3892 129.88 28.3364C129.887 28.3109 129.896 28.2786 129.903 28.2451C129.907 28.2285 129.912 28.2032 129.917 28.1734C129.921 28.1543 129.932 28.0862 129.932 28H127.932ZM127.721 28.5253C127.552 29.1144 127.482 29.816 127.482 30.6H129.482C129.482 29.9173 129.545 29.4189 129.644 29.0747L127.721 28.5253ZM127.482 30.6C127.482 31.6245 127.89 32.5221 128.625 33.2571L130.039 31.8429C129.641 31.4446 129.482 31.0422 129.482 30.6H127.482ZM128.645 33.277C129.433 34.0209 130.396 34.4 131.482 34.4V32.4C130.901 32.4 130.431 32.2124 130.019 31.823L128.645 33.277ZM131.482 34.4C132.408 34.4 133.256 34.2541 133.953 33.8824L133.011 32.1176C132.708 32.2792 132.223 32.4 131.482 32.4V34.4ZM133.997 33.8575C134.63 33.4773 135.139 32.9717 135.44 32.3191L133.624 31.4809C133.525 31.6949 133.334 31.9227 132.968 32.1425L133.997 33.8575ZM135.426 32.3472C135.778 31.6433 135.982 30.9234 135.982 30.2H133.982C133.982 30.5433 133.886 30.9567 133.638 31.4528L135.426 32.3472ZM135.982 30.2C135.982 28.8367 135.277 27.7287 134.119 26.8901L132.946 28.5099C133.721 29.0713 133.982 29.6299 133.982 30.2H135.982ZM134.119 26.8901C133.069 26.1301 131.914 25.5351 130.656 25.1041L130.008 26.9959C131.084 27.3649 132.062 27.8699 132.946 28.5099L134.119 26.8901ZM130.656 25.1041C129.64 24.7557 128.698 24.1714 127.827 23.3306L126.437 24.7694C127.5 25.7952 128.69 26.5443 130.008 26.9959L130.656 25.1041ZM127.827 23.3306C127.064 22.5944 126.682 21.6914 126.682 20.55H124.682C124.682 22.2086 125.267 23.639 126.437 24.7694L127.827 23.3306ZM126.682 20.55C126.682 18.3707 127.352 16.8946 128.557 15.9309L127.307 14.3691C125.512 15.8054 124.682 17.9293 124.682 20.55H126.682ZM128.548 15.9375C129.855 14.9151 131.681 14.35 134.132 14.35V12.35C131.383 12.35 129.076 12.9849 127.316 14.3625L128.548 15.9375ZM134.132 14.35C135.167 14.35 136.262 14.5021 137.421 14.8154L137.943 12.8846C136.635 12.5312 135.364 12.35 134.132 12.35V14.35ZM137.452 14.8231C138.011 14.9556 138.315 15.1155 138.463 15.2399C138.574 15.3338 138.582 15.3874 138.582 15.45H140.582C140.582 14.7459 140.273 14.1495 139.751 13.7101C139.266 13.3011 138.62 13.0444 137.912 12.8769L137.452 14.8231ZM138.582 15.45C138.582 16.0591 138.472 16.6095 138.26 17.1119L140.104 17.8881C140.425 17.1238 140.582 16.3075 140.582 15.45H138.582ZM138.244 17.1543C138.2 17.2742 138.158 17.3628 138.123 17.4261C138.087 17.49 138.062 17.518 138.056 17.5248C138.051 17.5303 138.069 17.5094 138.115 17.4873C138.165 17.4637 138.224 17.45 138.282 17.45V19.45C139.348 19.45 139.872 18.5188 140.12 17.8457L138.244 17.1543ZM138.282 17.45C138.287 17.45 138.368 17.4499 138.479 17.5056C138.606 17.569 138.713 17.6759 138.776 17.8028L136.988 18.6972C137.282 19.2861 137.854 19.45 138.282 19.45V17.45ZM138.811 17.8786C138.692 17.5814 138.507 17.3075 138.3 17.0598L136.764 18.3402C136.891 18.4925 136.939 18.5853 136.954 18.6214L138.811 17.8786ZM138.3 17.0598C138.115 16.8374 137.866 16.6579 137.637 16.5145C137.393 16.3617 137.097 16.2057 136.76 16.0463L135.904 17.8537C136.201 17.9943 136.422 18.1133 136.577 18.2105C136.748 18.3171 136.783 18.3626 136.764 18.3402L138.3 17.0598ZM136.798 16.0651C136.091 15.6929 135.375 15.45 134.682 15.45V17.45C134.923 17.45 135.307 17.5404 135.866 17.8349L136.798 16.0651ZM134.682 15.45C134.253 15.45 133.862 15.4643 133.586 15.5194L133.978 17.4806C134.036 17.469 134.244 17.45 134.682 17.45V15.45ZM133.782 15.5C133.494 15.5 133.118 15.59 132.769 15.6852L133.295 17.6148C133.466 17.5682 133.596 17.537 133.691 17.5181C133.798 17.4966 133.816 17.5 133.782 17.5V15.5ZM132.853 15.6661C132.388 15.7507 131.95 15.9017 131.546 16.1258L132.518 17.8742C132.714 17.765 132.943 17.6827 133.211 17.6339L132.853 15.6661ZM131.54 16.1294C130.481 16.7278 129.882 17.6816 129.882 18.9H131.882C131.882 18.4517 132.049 18.1389 132.524 17.8706L131.54 16.1294ZM129.882 18.9C129.882 19.5571 130.023 20.2367 130.479 20.7585L131.985 19.4415C131.975 19.4299 131.882 19.3096 131.882 18.9H129.882ZM130.525 20.8071C130.758 21.0404 130.942 21.2238 131.075 21.3571L132.489 19.9429C132.356 19.8096 132.172 19.6262 131.939 19.3929L130.525 20.8071ZM131.075 21.3571C131.3 21.5817 131.622 21.8 131.968 22.0075L132.997 20.2925C132.676 20.1 132.531 19.9849 132.489 19.9429L131.075 21.3571ZM132.035 22.0444C132.368 22.2111 132.601 22.3278 132.735 22.3944L133.629 20.6056C133.496 20.5389 133.263 20.4222 132.929 20.2556L132.035 22.0444ZM132.735 22.3944C132.786 22.4203 132.794 22.4238 132.866 22.4601C132.866 22.4603 132.867 22.4605 132.867 22.4607C132.868 22.4609 132.868 22.4611 132.869 22.4613C132.869 22.4615 132.869 22.4618 132.87 22.462C132.87 22.4622 132.871 22.4624 132.871 22.4626C132.873 22.4637 132.874 22.464 132.876 22.4652C132.876 22.4652 132.882 22.4678 132.882 22.4678C132.882 22.468 132.882 22.4682 132.883 22.4685C132.883 22.4687 132.884 22.4689 132.884 22.4691C132.885 22.4693 132.885 22.4696 132.886 22.4698C132.886 22.47 132.886 22.4702 132.887 22.4705C132.889 22.4716 132.89 22.4719 132.892 22.4731C132.893 22.4734 132.893 22.4736 132.894 22.4738C132.894 22.474 132.894 22.4743 132.895 22.4745C132.895 22.4747 132.896 22.4749 132.896 22.4752C132.897 22.4754 132.897 22.4756 132.898 22.4758C132.898 22.4761 132.899 22.4763 132.899 22.4765C132.899 22.4767 132.9 22.477 132.9 22.4772C132.901 22.4774 132.901 22.4777 132.902 22.4779C132.902 22.4781 132.903 22.4783 132.903 22.4786C132.904 22.4788 132.904 22.479 132.904 22.4793C132.905 22.4795 132.905 22.4797 132.906 22.48C132.906 22.4802 132.907 22.4804 132.907 22.4806C132.908 22.4809 132.908 22.4811 132.909 22.4813C132.914 22.4838 132.915 22.4844 132.92 22.487C132.92 22.487 132.926 22.4898 132.926 22.4898C132.926 22.4898 132.931 22.4927 132.931 22.4927C132.934 22.494 132.932 22.4929 132.934 22.4942C132.935 22.4944 132.935 22.4947 132.936 22.4949C132.936 22.4951 132.937 22.4954 132.937 22.4956C132.938 22.4959 132.938 22.4961 132.939 22.4964C132.939 22.4966 132.94 22.4969 132.94 22.4971C132.941 22.4974 132.941 22.4976 132.942 22.4978C132.942 22.4981 132.943 22.4983 132.943 22.4986C132.944 22.4988 132.944 22.4991 132.945 22.4993C132.945 22.4996 132.946 22.4998 132.946 22.5001C132.947 22.5003 132.947 22.5006 132.948 22.5008C132.948 22.5011 132.949 22.5013 132.949 22.5016C132.95 22.5018 132.95 22.5021 132.951 22.5023C132.951 22.5026 132.952 22.5028 132.952 22.5031C132.953 22.5033 132.953 22.5036 132.954 22.5038C132.954 22.5041 132.955 22.5043 132.955 22.5046C132.961 22.5073 132.962 22.508 132.967 22.5107C132.968 22.511 132.968 22.5112 132.969 22.5115C132.969 22.5117 132.97 22.512 132.97 22.5122C132.971 22.5125 132.971 22.5128 132.972 22.513C132.973 22.5133 132.973 22.5135 132.974 22.5138C132.975 22.5145 132.975 22.5147 132.977 22.5154C132.977 22.5156 132.978 22.5159 132.978 22.5161C132.979 22.5164 132.979 22.5167 132.98 22.5169C132.98 22.5169 132.986 22.5201 132.986 22.5201C132.989 22.5215 132.99 22.5219 132.993 22.5233C132.993 22.5236 132.994 22.5238 132.994 22.5241C132.995 22.5244 132.995 22.5246 132.996 22.5249C132.996 22.5252 132.997 22.5254 132.997 22.5257C132.998 22.526 132.998 22.5263 132.999 22.5265C133 22.5268 133 22.5271 133.001 22.5273C133.001 22.5276 133.002 22.5279 133.002 22.5281C133.003 22.5284 133.003 22.5287 133.004 22.529C133.004 22.5292 133.005 22.5295 133.006 22.5298C133.017 22.5356 133.02 22.5371 133.032 22.5431C133.033 22.5434 133.033 22.5437 133.034 22.544C133.034 22.5442 133.035 22.5445 133.036 22.5448C133.036 22.5451 133.037 22.5454 133.037 22.5457C133.038 22.5459 133.038 22.5462 133.039 22.5465C133.04 22.5468 133.04 22.5471 133.041 22.5474C133.041 22.5477 133.042 22.5479 133.042 22.5482C133.044 22.549 133.044 22.5492 133.046 22.55C133.046 22.5502 133.047 22.5505 133.048 22.5508C133.048 22.5511 133.049 22.5514 133.049 22.5517C133.05 22.552 133.05 22.5523 133.051 22.5526C133.052 22.5528 133.052 22.5531 133.053 22.5534C133.053 22.5537 133.054 22.554 133.055 22.5543C133.055 22.5546 133.056 22.5549 133.056 22.5552C133.057 22.5555 133.057 22.5558 133.058 22.556C133.059 22.5563 133.059 22.5566 133.06 22.5569C133.159 22.6066 133.196 22.6249 133.316 22.6851C133.348 22.701 133.357 22.7053 133.39 22.722C133.457 22.7557 133.399 22.7265 133.468 22.7608C133.468 22.7608 133.548 22.801 133.549 22.8017C133.586 22.8203 133.596 22.8252 133.635 22.8444L134.529 21.0556C134.49 21.0361 134.525 21.0532 134.486 21.0339C134.485 21.0335 134.484 21.0331 134.483 21.0326C134.482 21.0322 134.482 21.0317 134.481 21.0313C134.48 21.0308 134.479 21.0304 134.478 21.0299C134.477 21.0295 134.476 21.0291 134.475 21.0286C134.474 21.0282 134.474 21.0277 134.473 21.0273C134.472 21.0268 134.471 21.0264 134.47 21.026C134.469 21.0255 134.468 21.0251 134.467 21.0246C134.466 21.0242 134.466 21.0237 134.465 21.0233C134.464 21.0229 134.463 21.0224 134.462 21.022C134.461 21.0215 134.46 21.0211 134.459 21.0207C134.459 21.0202 134.458 21.0198 134.457 21.0194C134.456 21.0189 134.455 21.0185 134.454 21.018C134.453 21.0176 134.452 21.0172 134.452 21.0167C134.451 21.0163 134.45 21.0159 134.449 21.0154C134.448 21.015 134.447 21.0145 134.446 21.0141C134.445 21.0137 134.445 21.0132 134.444 21.0128C134.443 21.0124 134.442 21.0119 134.441 21.0115C134.44 21.0111 134.439 21.0106 134.438 21.0102C134.438 21.0098 134.437 21.0093 134.436 21.0089C134.435 21.0085 134.434 21.008 134.433 21.0076C134.429 21.0053 134.428 21.0047 134.423 21.0024C134.421 21.0013 134.42 21.001 134.418 20.9998C134.415 20.9987 134.415 20.9984 134.413 20.9973C134.404 20.9927 134.411 20.9967 134.402 20.9921C134.402 20.9917 134.401 20.9913 134.4 20.9909C134.399 20.9904 134.398 20.99 134.397 20.9896C134.396 20.9892 134.396 20.9887 134.395 20.9883C134.394 20.9879 134.393 20.9875 134.392 20.9871C134.391 20.9866 134.391 20.9862 134.39 20.9858C134.389 20.9854 134.388 20.9849 134.387 20.9845C134.386 20.9841 134.385 20.9837 134.385 20.9833C134.384 20.9828 134.383 20.9824 134.382 20.982C134.381 20.9816 134.38 20.9812 134.38 20.9807C134.379 20.9803 134.378 20.9799 134.377 20.9795C134.376 20.9791 134.375 20.9786 134.375 20.9782C134.374 20.9778 134.373 20.9774 134.372 20.977C134.371 20.9766 134.37 20.9761 134.37 20.9757C134.369 20.9753 134.368 20.9749 134.367 20.9745C134.363 20.9723 134.366 20.9742 134.362 20.972C134.361 20.9716 134.36 20.9711 134.36 20.9707C134.359 20.9703 134.358 20.9699 134.357 20.9695C134.356 20.9691 134.355 20.9687 134.355 20.9683C134.354 20.9678 134.353 20.9674 134.352 20.967C134.351 20.9666 134.35 20.9662 134.35 20.9658C134.349 20.9654 134.348 20.965 134.347 20.9645C134.346 20.9641 134.346 20.9637 134.345 20.9633C134.344 20.9629 134.343 20.9625 134.342 20.9621C134.341 20.9617 134.341 20.9613 134.34 20.9608C134.339 20.9604 134.338 20.96 134.337 20.9596C134.337 20.9592 134.336 20.9588 134.335 20.9584C134.334 20.958 134.333 20.9576 134.332 20.9572C134.332 20.9568 134.331 20.9564 134.33 20.956C134.329 20.9555 134.328 20.9551 134.328 20.9547C134.327 20.9543 134.326 20.9539 134.325 20.9535C134.324 20.9531 134.324 20.9527 134.323 20.9523C134.322 20.9519 134.321 20.9515 134.32 20.9511C134.319 20.9507 134.319 20.9503 134.318 20.9499C134.317 20.9495 134.316 20.9491 134.315 20.9487C134.315 20.9483 134.314 20.9479 134.313 20.9475C134.309 20.9453 134.308 20.9448 134.303 20.9426C134.295 20.9384 134.293 20.9373 134.284 20.9331C134.284 20.9327 134.283 20.9323 134.282 20.9319C134.281 20.9315 134.28 20.9311 134.28 20.9307C134.279 20.9304 134.278 20.93 134.277 20.9296C134.276 20.9292 134.276 20.9288 134.275 20.9284C134.274 20.928 134.273 20.9276 134.273 20.9272C134.272 20.9268 134.271 20.9264 134.27 20.926C134.269 20.9256 134.269 20.9253 134.268 20.9249C134.267 20.9245 134.266 20.9241 134.266 20.9237C134.265 20.9233 134.264 20.9229 134.263 20.9225C134.262 20.9221 134.262 20.9218 134.261 20.9214C134.26 20.921 134.259 20.9206 134.259 20.9202C134.258 20.9198 134.257 20.9194 134.256 20.919C134.255 20.9187 134.255 20.9183 134.254 20.9179C134.253 20.9175 134.252 20.9171 134.252 20.9167C134.251 20.9163 134.25 20.9159 134.249 20.9156C134.248 20.9152 134.248 20.9148 134.247 20.9144C134.246 20.914 134.245 20.9136 134.245 20.9133C134.244 20.9129 134.243 20.9125 134.242 20.9121C134.242 20.9117 134.241 20.9113 134.24 20.911C134.239 20.9106 134.238 20.9102 134.238 20.9098C134.237 20.9094 134.236 20.909 134.235 20.9087C134.235 20.9083 134.234 20.9079 134.233 20.9075C134.232 20.9071 134.232 20.9068 134.231 20.9064C134.23 20.906 134.229 20.9056 134.229 20.9052C134.228 20.9049 134.227 20.9045 134.226 20.9041C134.226 20.9037 134.225 20.9033 134.224 20.903C134.223 20.9026 134.223 20.9022 134.222 20.9018C134.221 20.9015 134.22 20.9011 134.22 20.9007C134.219 20.9003 134.218 20.9 134.217 20.8996C134.216 20.8992 134.216 20.8988 134.215 20.8984C134.214 20.8981 134.213 20.8977 134.213 20.8973C134.212 20.8969 134.211 20.8966 134.21 20.8962C134.147 20.8643 134.133 20.8575 134.075 20.8282C134.074 20.8279 134.073 20.8276 134.073 20.8272C134.072 20.8269 134.071 20.8266 134.071 20.8262C134.07 20.8259 134.069 20.8256 134.069 20.8252C134.068 20.8249 134.067 20.8246 134.067 20.8242C134.066 20.8239 134.065 20.8236 134.065 20.8232C134.064 20.8229 134.063 20.8226 134.063 20.8223C134.062 20.8219 134.061 20.8216 134.061 20.8213C134.06 20.8209 134.059 20.8206 134.059 20.8203C134.058 20.82 134.057 20.8196 134.057 20.8193C134.056 20.819 134.055 20.8186 134.055 20.8183C134.054 20.818 134.053 20.8177 134.053 20.8173C134.052 20.817 134.051 20.8167 134.051 20.8164C134.05 20.816 134.05 20.8157 134.049 20.8154C134.048 20.8151 134.048 20.8147 134.047 20.8144C134.046 20.8141 134.046 20.8138 134.045 20.8134C134.044 20.8131 134.044 20.8128 134.043 20.8125C134.042 20.8121 134.042 20.8118 134.041 20.8115C134.04 20.8112 134.04 20.8108 134.039 20.8105C134.038 20.8102 134.038 20.8099 134.037 20.8096C134.037 20.8092 134.036 20.8089 134.035 20.8086C134.032 20.8069 134.035 20.8084 134.031 20.8067C134.03 20.8058 134.029 20.8056 134.028 20.8048C134.027 20.8044 134.026 20.8041 134.026 20.8038C134.025 20.8035 134.024 20.8032 134.024 20.8028C134.023 20.8025 134.023 20.8022 134.022 20.8019C134.021 20.8016 134.021 20.8013 134.02 20.8009C134.019 20.8006 134.019 20.8003 134.018 20.8C134.017 20.7997 134.017 20.7994 134.016 20.7991C134.016 20.7987 134.015 20.7984 134.014 20.7981C134.014 20.7978 134.013 20.7975 134.012 20.7972C134.006 20.7938 134.004 20.793 133.998 20.7897C133.997 20.7894 133.996 20.7891 133.996 20.7888C133.995 20.7885 133.994 20.7882 133.994 20.7879C133.993 20.7876 133.993 20.7873 133.992 20.7869C133.991 20.7866 133.991 20.7863 133.99 20.786C133.99 20.7857 133.989 20.7854 133.988 20.7851C133.988 20.7848 133.987 20.7845 133.987 20.7842C133.986 20.7839 133.985 20.7836 133.985 20.7833C133.984 20.783 133.983 20.7827 133.983 20.7824C133.981 20.7816 133.981 20.7814 133.979 20.7806C133.979 20.7803 133.978 20.78 133.977 20.7797C133.977 20.7794 133.976 20.7791 133.976 20.7788C133.975 20.7785 133.974 20.7782 133.974 20.7779C133.973 20.7776 133.973 20.7773 133.972 20.777C133.971 20.7767 133.971 20.7764 133.97 20.7761C133.97 20.7758 133.969 20.7755 133.968 20.7752C133.968 20.7749 133.967 20.7746 133.967 20.7743C133.966 20.774 133.965 20.7737 133.965 20.7734C133.964 20.7731 133.964 20.7728 133.963 20.7725C133.962 20.7722 133.962 20.7719 133.961 20.7716C133.958 20.77 133.957 20.7696 133.954 20.7681C133.782 20.6819 133.718 20.6501 133.629 20.6056L132.735 22.3944ZM133.688 22.8691C134.162 23.0722 134.433 23.1935 134.535 23.2444L135.429 21.4556C135.264 21.3732 134.936 21.2278 134.476 21.0309L133.688 22.8691ZM134.555 23.2544C137.888 24.8262 139.282 26.8116 139.282 29.15H141.282C141.282 25.7551 139.143 23.2071 135.409 21.4456L134.555 23.2544Z" fill="#E34929"/>
</g>
<defs>
<filter id="filter0_d_817_111" x="0" y="0.350098" width="144.282" height="44.8999" filterUnits="userSpaceOnUse" color-interpolation-filters="sRGB">
<feFlood flood-opacity="0" result="BackgroundImageFix"/>
<feColorMatrix in="SourceAlpha" type="matrix" values="0 0 0 0 0 0 0 0 0 0 0 0 0 0 0 0 0 0 127 0" result="hardAlpha"/>
<feOffset dy="4"/>
<feGaussianBlur stdDeviation="2"/>
<feComposite in2="hardAlpha" operator="out"/>
<feColorMatrix type="matrix" values="0 0 0 0 0 0 0 0 0 0 0 0 0 0 0 0 0 0 0.25 0"/>
<feBlend mode="normal" in2="BackgroundImageFix" result="effect1_dropShadow_817_111"/>
<feBlend mode="normal" in="SourceGraphic" in2="effect1_dropShadow_817_111" result="shape"/>
</filter>
<linearGradient id="paint0_linear_817_111" x1="-9.99713" y1="-12.055" x2="30.0005" y2="91.8523" gradientUnits="userSpaceOnUse">
<stop offset="0.0572917" stop-color="#FCA118"/>
<stop offset="0.296875" stop-color="#FF8328"/>
<stop offset="0.489583" stop-color="#ED6D22"/>
<stop offset="1" stop-color="#DB2E2E"/>
</linearGradient>
</defs>
</svg>
