<svg width="192" height="43" viewBox="0 0 192 43" fill="none" xmlns="http://www.w3.org/2000/svg">
<g filter="url(#filter0_d_873_242)">
<path d="M19.66 8.07L19.84 6.675C19.84 5.295 19.3 4.41 18.22 4.02C17.38 3.75 16.735 3.615 16.285 3.615H16.24C15.34 3.615 14.56 3.765 13.9 4.065C13.24 4.335 12.76 4.68 12.46 5.1C11.83 5.97 11.47 6.885 11.38 7.845C11.38 8.985 11.89 9.975 12.91 10.815C13.93 11.625 15.16 12.345 16.6 12.975C18.07 13.575 19.525 14.235 20.965 14.955C22.435 15.675 23.68 16.71 24.7 18.06C25.72 19.41 26.23 21.03 26.23 22.92C26.23 26.61 25.06 29.37 22.72 31.2C20.41 33.03 17.77 33.945 14.8 33.945C11.86 33.945 9.415 33.285 7.465 31.965C5.545 30.615 4.585 28.815 4.585 26.565V26.52C4.585 25.41 4.75 24.45 5.08 23.64C5.44 22.8 5.86 22.185 6.34 21.795C7.33 20.985 8.23 20.55 9.04 20.49L9.58 20.445C10.42 20.445 11.185 20.655 11.875 21.075C12.565 21.465 12.91 22.02 12.91 22.74C12.91 23.1 12.715 23.4 12.325 23.64C11.935 23.88 11.59 24.24 11.29 24.72C11.02 25.2 10.87 25.605 10.84 25.935L10.75 26.43C10.75 28.26 11.59 29.475 13.27 30.075C13.87 30.285 14.35 30.39 14.71 30.39C16.36 30.39 17.68 29.895 18.67 28.905C19.69 27.915 20.2 26.655 20.2 25.125C20.2 23.295 19.42 21.81 17.86 20.67C16.69 19.83 15.415 19.125 14.035 18.555C12.685 17.985 11.77 17.58 11.29 17.34C10.81 17.1 10.3 16.815 9.76 16.485C9.22 16.155 8.62 15.69 7.96 15.09C6.52 13.83 5.8 12.135 5.8 10.005C5.8 7.845 6.385 6.03 7.555 4.56C9.655 1.89 12.805 0.554999 17.005 0.554999C19.225 0.554999 21.1 0.989999 22.63 1.86C24.16 2.7 24.925 3.87 24.925 5.37C24.925 6.45 24.61 7.35 23.98 8.07C23.38 8.79 22.6 9.15 21.64 9.15C21.19 9.15 20.74 9.06 20.29 8.88C19.87 8.7 19.66 8.43 19.66 8.07ZM28.2895 33.315C28.8295 30.075 29.0995 26.19 29.0995 21.66C29.0995 17.13 28.9645 14.19 28.6945 12.84C28.6945 12.45 29.1445 12.255 30.0445 12.255C31.4245 12.255 32.3395 12.78 32.7895 13.83C32.8195 13.92 32.8945 13.965 33.0145 13.965C33.1345 13.965 33.2245 13.935 33.2845 13.875C34.2145 12.915 35.6545 12.435 37.6045 12.435C39.5545 12.435 41.0995 12.93 42.2395 13.92C43.3795 14.91 43.9495 16.35 43.9495 18.24C43.9495 19.38 43.8445 21 43.6345 23.1C43.4545 25.2 43.3645 26.76 43.3645 27.78C43.3645 30.21 43.7695 31.965 44.5795 33.045C44.6995 33.195 44.7595 33.345 44.7595 33.495C44.7595 33.885 44.3395 34.08 43.4995 34.08C39.7795 34.08 37.9195 32.43 37.9195 29.13C37.9195 27.87 38.2045 26.115 38.7745 23.865C39.3445 21.615 39.6295 19.905 39.6295 18.735C39.6295 16.335 38.6395 15.135 36.6595 15.135C35.6995 15.135 34.9645 15.42 34.4545 15.99C33.9745 16.56 33.7045 17.22 33.6445 17.97C33.5845 18.69 33.5545 20.07 33.5545 22.11C33.5545 25.23 33.6595 27.945 33.8695 30.255L33.9595 31.245C33.9595 32.085 33.4045 32.73 32.2945 33.18C31.2145 33.66 30.2695 33.9 29.4595 33.9C28.6795 33.9 28.2895 33.705 28.2895 33.315ZM61.2931 19.5L61.2031 25.26C61.2031 29.25 61.6381 31.65 62.5081 32.46C62.6281 32.58 62.6881 32.715 62.6881 32.865C62.6881 33.315 61.7131 33.54 59.7631 33.54C57.8431 33.54 56.8231 32.97 56.7031 31.83C56.6731 31.56 56.6581 31.005 56.6581 30.165L56.8381 22.965C56.8381 22.755 56.7181 22.65 56.4781 22.65C55.0381 22.65 53.6881 23.055 52.4281 23.865C51.1681 24.675 50.5381 25.71 50.5381 26.97C50.5381 27.63 50.7181 28.185 51.0781 28.635C51.4381 29.085 51.8731 29.31 52.3831 29.31C52.9231 29.31 53.3581 29.205 53.6881 28.995C54.0481 28.785 54.2581 28.665 54.3181 28.635C54.8281 28.695 55.0831 29.235 55.0831 30.255C55.0831 31.245 54.6181 32.055 53.6881 32.685C52.7581 33.285 51.7831 33.585 50.7631 33.585C49.7431 33.585 48.8581 33.405 48.1081 33.045C47.3881 32.685 46.8631 32.28 46.5331 31.83C46.2031 31.38 45.9331 30.87 45.7231 30.3C45.5131 29.61 45.4081 29.01 45.4081 28.5C45.4081 26.4 46.0681 24.72 47.3881 23.46C48.7081 22.2 50.4031 21.3 52.4731 20.76C55.2031 20.22 56.6281 19.725 56.7481 19.275C56.8381 18.945 56.8831 18.39 56.8831 17.61C56.8831 16.02 56.0731 15.225 54.4531 15.225C53.7631 15.225 53.1481 15.45 52.6081 15.9C52.0681 16.32 51.7981 16.86 51.7981 17.52L52.0681 18.6C52.0081 19.11 51.4681 19.41 50.4481 19.5L49.9531 19.545C49.0531 19.545 48.3331 19.32 47.7931 18.87C47.2831 18.42 47.0281 17.82 47.0281 17.07C47.0281 16.59 47.1781 16.065 47.4781 15.495C47.8081 14.895 48.2131 14.415 48.6931 14.055C49.1731 13.695 49.9081 13.38 50.8981 13.11C51.9181 12.81 52.8931 12.66 53.8231 12.66C54.7531 12.66 55.4731 12.69 55.9831 12.75C56.4931 12.81 57.1831 12.96 58.0531 13.2C58.9531 13.41 59.6881 13.83 60.2581 14.46C60.8581 15.09 61.1731 15.765 61.2031 16.485C61.2631 17.175 61.2931 18.18 61.2931 19.5ZM78.732 27.825C78.732 29.535 78.042 30.96 76.662 32.1C75.312 33.21 73.692 33.765 71.802 33.765C69.042 33.765 67.017 32.94 65.727 31.29C64.437 29.61 63.792 27.345 63.792 24.495C63.792 21.465 64.467 18.78 65.817 16.44C66.477 15.24 67.422 14.295 68.652 13.605C69.882 12.915 71.322 12.57 72.972 12.57C75.462 12.57 77.217 13.41 78.237 15.09C78.657 15.78 78.867 16.59 78.867 17.52C78.867 18.96 78.267 20.04 77.067 20.76C76.587 21.03 76.137 21.165 75.717 21.165C75.327 21.165 74.997 21.15 74.727 21.12C74.487 21.06 74.157 20.85 73.737 20.49C73.317 20.13 73.107 19.635 73.107 19.005C73.137 18.675 73.392 18.405 73.872 18.195C74.322 17.925 74.547 17.445 74.547 16.755C74.547 15.585 73.827 15 72.387 15C72.027 15 71.592 15.165 71.082 15.495C70.602 15.795 70.197 16.2 69.867 16.71C69.537 17.19 69.222 17.97 68.922 19.05C68.652 20.1 68.517 21.12 68.517 22.11C68.517 23.07 68.547 23.805 68.607 24.315C68.697 24.795 68.862 25.47 69.102 26.34C69.372 27.18 69.852 27.87 70.542 28.41C71.262 28.95 72.147 29.22 73.197 29.22C74.457 29.22 75.567 28.695 76.527 27.645C76.917 27.225 77.232 26.715 77.472 26.115C77.592 25.875 77.742 25.755 77.922 25.755C78.192 25.755 78.387 26.01 78.507 26.52C78.657 27 78.732 27.435 78.732 27.825ZM90.0407 18.42C89.9207 18.54 89.8607 18.675 89.8607 18.825C89.8607 18.945 90.1307 19.065 90.6707 19.185C91.2407 19.305 91.8557 19.635 92.5157 20.175C93.1757 20.715 93.6707 21.3 94.0007 21.93C94.6307 23.16 94.9757 24.24 95.0357 25.17L95.0807 25.755C95.2307 29.265 95.8757 31.665 97.0157 32.955C97.1657 33.165 97.2407 33.315 97.2407 33.405C97.2407 33.735 96.8207 33.9 95.9807 33.9C93.4607 33.9 91.8557 33.375 91.1657 32.325C90.8057 31.905 90.6257 30.6 90.6257 28.41V27.285C90.6257 24.495 90.2807 22.56 89.5907 21.48C89.2307 20.97 88.7807 20.715 88.2407 20.715C87.7307 20.715 87.1907 21.18 86.6207 22.11C86.0507 23.01 85.7657 23.775 85.7657 24.405C85.7657 26.925 85.8257 28.68 85.9457 29.67C86.0657 30.66 86.1257 31.17 86.1257 31.2C86.1257 32.07 85.5257 32.745 84.3257 33.225C83.1557 33.705 82.0457 33.945 80.9957 33.945C80.6057 33.945 80.4107 33.705 80.4107 33.225V33.045C81.1307 29.355 81.4907 23.535 81.4907 15.585C81.4907 12.975 81.4307 10.77 81.3107 8.97L81.2207 8.07C81.1607 7.23 80.9807 6.51 80.6807 5.91C80.4107 5.31 80.1407 4.92 79.8707 4.74L79.5107 4.515C79.3007 4.395 79.1957 4.26 79.1957 4.11C79.1957 3.63 79.9157 3.09 81.3557 2.49C82.7957 1.89 84.0407 1.59 85.0907 1.59C85.5707 1.62 85.8257 1.8 85.8557 2.13C86.0057 3.33 86.0807 5.805 86.0807 9.555C86.0807 13.275 85.9907 16.245 85.8107 18.465C85.8107 18.825 85.8707 19.005 85.9907 19.005C86.1107 19.005 86.2907 18.84 86.5307 18.51C86.8007 18.15 87.2507 17.595 87.8807 16.845C88.5407 16.095 89.4107 15.225 90.4907 14.235C91.6007 13.245 92.4857 12.75 93.1457 12.75C93.8357 12.75 94.5107 12.915 95.1707 13.245C95.8307 13.575 96.1607 13.89 96.1607 14.19L95.6657 14.505C93.9557 15.135 92.0807 16.44 90.0407 18.42ZM104.15 7.26L103.88 23.775C103.88 28.935 104.045 32.025 104.375 33.045C104.465 33.225 104.51 33.405 104.51 33.585C104.51 33.945 104.075 34.125 103.205 34.125C102.335 34.125 101.36 33.9 100.28 33.45C99.2296 33.03 98.7046 32.475 98.7046 31.785C99.3046 27.585 99.6046 21.975 99.6046 14.955L99.4246 8.07C99.3646 7.23 99.1846 6.51 98.8846 5.91C98.6146 5.31 98.3446 4.92 98.0746 4.74L97.7146 4.515C97.5046 4.395 97.3996 4.26 97.3996 4.11C97.3996 3.69 98.0446 3.18 99.3346 2.58C100.655 1.95 101.93 1.635 103.16 1.635C103.64 1.635 103.91 1.8 103.97 2.13C104.09 2.91 104.15 4.62 104.15 7.26ZM122.245 19.5L122.155 25.26C122.155 29.25 122.59 31.65 123.46 32.46C123.58 32.58 123.64 32.715 123.64 32.865C123.64 33.315 122.665 33.54 120.715 33.54C118.795 33.54 117.775 32.97 117.655 31.83C117.625 31.56 117.61 31.005 117.61 30.165L117.79 22.965C117.79 22.755 117.67 22.65 117.43 22.65C115.99 22.65 114.64 23.055 113.38 23.865C112.12 24.675 111.49 25.71 111.49 26.97C111.49 27.63 111.67 28.185 112.03 28.635C112.39 29.085 112.825 29.31 113.335 29.31C113.875 29.31 114.31 29.205 114.64 28.995C115 28.785 115.21 28.665 115.27 28.635C115.78 28.695 116.035 29.235 116.035 30.255C116.035 31.245 115.57 32.055 114.64 32.685C113.71 33.285 112.735 33.585 111.715 33.585C110.695 33.585 109.81 33.405 109.06 33.045C108.34 32.685 107.815 32.28 107.485 31.83C107.155 31.38 106.885 30.87 106.675 30.3C106.465 29.61 106.36 29.01 106.36 28.5C106.36 26.4 107.02 24.72 108.34 23.46C109.66 22.2 111.355 21.3 113.425 20.76C116.155 20.22 117.58 19.725 117.7 19.275C117.79 18.945 117.835 18.39 117.835 17.61C117.835 16.02 117.025 15.225 115.405 15.225C114.715 15.225 114.1 15.45 113.56 15.9C113.02 16.32 112.75 16.86 112.75 17.52L113.02 18.6C112.96 19.11 112.42 19.41 111.4 19.5L110.905 19.545C110.005 19.545 109.285 19.32 108.745 18.87C108.235 18.42 107.98 17.82 107.98 17.07C107.98 16.59 108.13 16.065 108.43 15.495C108.76 14.895 109.165 14.415 109.645 14.055C110.125 13.695 110.86 13.38 111.85 13.11C112.87 12.81 113.845 12.66 114.775 12.66C115.705 12.66 116.425 12.69 116.935 12.75C117.445 12.81 118.135 12.96 119.005 13.2C119.905 13.41 120.64 13.83 121.21 14.46C121.81 15.09 122.125 15.765 122.155 16.485C122.215 17.175 122.245 18.18 122.245 19.5ZM124.969 33.315C125.509 30.075 125.779 26.19 125.779 21.66C125.779 17.13 125.644 14.19 125.374 12.84C125.374 12.45 125.824 12.255 126.724 12.255C128.104 12.255 129.019 12.78 129.469 13.83C129.499 13.92 129.574 13.965 129.694 13.965C129.814 13.965 129.904 13.935 129.964 13.875C130.894 12.915 132.334 12.435 134.284 12.435C136.234 12.435 137.779 12.93 138.919 13.92C140.059 14.91 140.629 16.35 140.629 18.24C140.629 19.38 140.524 21 140.314 23.1C140.134 25.2 140.044 26.76 140.044 27.78C140.044 30.21 140.449 31.965 141.259 33.045C141.379 33.195 141.439 33.345 141.439 33.495C141.439 33.885 141.019 34.08 140.179 34.08C136.459 34.08 134.599 32.43 134.599 29.13C134.599 27.87 134.884 26.115 135.454 23.865C136.024 21.615 136.309 19.905 136.309 18.735C136.309 16.335 135.319 15.135 133.339 15.135C132.379 15.135 131.644 15.42 131.134 15.99C130.654 16.56 130.384 17.22 130.324 17.97C130.264 18.69 130.234 20.07 130.234 22.11C130.234 25.23 130.339 27.945 130.549 30.255L130.639 31.245C130.639 32.085 130.084 32.73 128.974 33.18C127.894 33.66 126.949 33.9 126.139 33.9C125.359 33.9 124.969 33.705 124.969 33.315ZM151.943 12.795C152.483 12.795 152.963 12.87 153.383 13.02C153.833 13.14 154.073 13.2 154.103 13.2L154.373 12.975L154.193 8.07C154.133 7.23 153.953 6.51 153.653 5.91C153.353 5.31 153.083 4.92 152.843 4.74L152.438 4.515C152.258 4.395 152.168 4.26 152.168 4.11C152.168 3.66 152.858 3.135 154.238 2.535C155.648 1.935 156.743 1.635 157.523 1.635C158.303 1.635 158.723 1.8 158.783 2.13C158.933 3.15 159.008 5.1 159.008 7.98C159.008 10.83 158.933 13.635 158.783 16.395C158.663 19.155 158.603 22.29 158.603 25.8C158.603 29.28 158.828 31.47 159.278 32.37C159.398 32.58 159.458 32.775 159.458 32.955C159.458 33.405 158.813 33.63 157.523 33.63C155.063 33.63 153.833 33.045 153.833 31.875C153.773 31.395 153.743 30.66 153.743 29.67C153.743 28.65 153.833 26.775 154.013 24.045C154.223 21.285 154.328 19.17 154.328 17.7C154.328 16.2 153.578 15.45 152.078 15.45C150.608 15.45 149.483 16.32 148.703 18.06C147.923 19.8 147.533 21.54 147.533 23.28C147.533 26.97 148.463 28.815 150.323 28.815C150.593 28.815 150.848 28.77 151.088 28.68C151.358 28.56 151.523 28.5 151.583 28.5C151.823 28.5 152.003 28.65 152.123 28.95C152.273 29.25 152.348 29.55 152.348 29.85C152.348 30.87 151.943 31.74 151.133 32.46C150.323 33.15 149.333 33.495 148.163 33.495C146.363 33.495 144.998 32.715 144.068 31.155C143.168 29.565 142.718 27.6 142.718 25.26C142.718 22.29 143.423 19.53 144.833 16.98C145.553 15.72 146.528 14.715 147.758 13.965C148.988 13.185 150.383 12.795 151.943 12.795ZM166.123 8.925L165.043 8.88C164.233 8.88 163.708 9.075 163.468 9.465C163.408 9.555 163.333 9.6 163.243 9.6C162.853 9.6 162.658 8.94 162.658 7.62C162.658 6.27 162.853 5.415 163.243 5.055C163.663 4.695 164.368 4.515 165.358 4.515C166.378 4.515 167.068 4.695 167.428 5.055C167.788 5.385 167.968 5.955 167.968 6.765C167.968 7.575 167.833 8.145 167.563 8.475C167.293 8.775 166.813 8.925 166.123 8.925ZM162.523 31.65L163.018 21.165C163.018 18.675 162.733 16.98 162.163 16.08C161.983 15.78 161.773 15.555 161.533 15.405C161.353 15.345 161.263 15.225 161.263 15.045C161.263 14.505 162.028 13.98 163.558 13.47C165.088 12.96 166.198 12.705 166.888 12.705C167.608 12.705 167.983 12.885 168.013 13.245C168.013 13.845 167.923 15.555 167.743 18.375C167.593 21.165 167.518 24.105 167.518 27.195C167.518 30.285 167.698 32.205 168.058 32.955C168.148 33.105 168.193 33.255 168.193 33.405C168.193 33.795 167.623 33.99 166.483 33.99C165.343 33.99 164.173 33.69 162.973 33.09C162.673 32.94 162.523 32.46 162.523 31.65ZM185.966 19.5L185.876 25.26C185.876 29.25 186.311 31.65 187.181 32.46C187.301 32.58 187.361 32.715 187.361 32.865C187.361 33.315 186.386 33.54 184.436 33.54C182.516 33.54 181.496 32.97 181.376 31.83C181.346 31.56 181.331 31.005 181.331 30.165L181.511 22.965C181.511 22.755 181.391 22.65 181.151 22.65C179.711 22.65 178.361 23.055 177.101 23.865C175.841 24.675 175.211 25.71 175.211 26.97C175.211 27.63 175.391 28.185 175.751 28.635C176.111 29.085 176.546 29.31 177.056 29.31C177.596 29.31 178.031 29.205 178.361 28.995C178.721 28.785 178.931 28.665 178.991 28.635C179.501 28.695 179.756 29.235 179.756 30.255C179.756 31.245 179.291 32.055 178.361 32.685C177.431 33.285 176.456 33.585 175.436 33.585C174.416 33.585 173.531 33.405 172.781 33.045C172.061 32.685 171.536 32.28 171.206 31.83C170.876 31.38 170.606 30.87 170.396 30.3C170.186 29.61 170.081 29.01 170.081 28.5C170.081 26.4 170.741 24.72 172.061 23.46C173.381 22.2 175.076 21.3 177.146 20.76C179.876 20.22 181.301 19.725 181.421 19.275C181.511 18.945 181.556 18.39 181.556 17.61C181.556 16.02 180.746 15.225 179.126 15.225C178.436 15.225 177.821 15.45 177.281 15.9C176.741 16.32 176.471 16.86 176.471 17.52L176.741 18.6C176.681 19.11 176.141 19.41 175.121 19.5L174.626 19.545C173.726 19.545 173.006 19.32 172.466 18.87C171.956 18.42 171.701 17.82 171.701 17.07C171.701 16.59 171.851 16.065 172.151 15.495C172.481 14.895 172.886 14.415 173.366 14.055C173.846 13.695 174.581 13.38 175.571 13.11C176.591 12.81 177.566 12.66 178.496 12.66C179.426 12.66 180.146 12.69 180.656 12.75C181.166 12.81 181.856 12.96 182.726 13.2C183.626 13.41 184.361 13.83 184.931 14.46C185.531 15.09 185.846 15.765 185.876 16.485C185.936 17.175 185.966 18.18 185.966 19.5Z" fill="url(#paint0_linear_873_242)"/>
</g>
<defs>
<filter id="filter0_d_873_242" x="0.584961" y="0.555176" width="190.776" height="41.5698" filterUnits="userSpaceOnUse" color-interpolation-filters="sRGB">
<feFlood flood-opacity="0" result="BackgroundImageFix"/>
<feColorMatrix in="SourceAlpha" type="matrix" values="0 0 0 0 0 0 0 0 0 0 0 0 0 0 0 0 0 0 127 0" result="hardAlpha"/>
<feOffset dy="4"/>
<feGaussianBlur stdDeviation="2"/>
<feComposite in2="hardAlpha" operator="out"/>
<feColorMatrix type="matrix" values="0 0 0 0 0 0 0 0 0 0 0 0 0 0 0 0 0 0 0.25 0"/>
<feBlend mode="normal" in2="BackgroundImageFix" result="effect1_dropShadow_873_242"/>
<feBlend mode="normal" in="SourceGraphic" in2="effect1_dropShadow_873_242" result="shape"/>
</filter>
<linearGradient id="paint0_linear_873_242" x1="-12.3365" y1="-10.925" x2="16.4697" y2="95.5054" gradientUnits="userSpaceOnUse">
<stop offset="0.0572917" stop-color="#FCA118"/>
<stop offset="0.296875" stop-color="#FF8328"/>
<stop offset="0.489583" stop-color="#ED6D22"/>
<stop offset="1" stop-color="#DB2E2E"/>
</linearGradient>
</defs>
</svg>
